<?xml version="1.0" encoding="UTF-8" standalone="no"?>
<!-- Created with Inkscape (http://www.inkscape.org/) -->

<svg
   version="1.1"
   id="svg2"
   width="535.05005"
   height="749.03589"
   viewBox="0 0 535.05005 749.03589"
   sodipodi:docname="easy-iron-on.svg"
   inkscape:export-filename="steam.svg"
   inkscape:export-xdpi="96"
   inkscape:export-ydpi="96"
   inkscape:version="1.2.1 (9c6d41e410, 2022-07-14)"
   xmlns:inkscape="http://www.inkscape.org/namespaces/inkscape"
   xmlns:sodipodi="http://sodipodi.sourceforge.net/DTD/sodipodi-0.dtd"
   xmlns="http://www.w3.org/2000/svg"
   xmlns:svg="http://www.w3.org/2000/svg">
  <defs
     id="defs6">
    <clipPath
       clipPathUnits="userSpaceOnUse"
       id="clipPath160">
      <path
         d="m 75.89965,560.9556 h 13.4686 v 9.05719 h -13.4686 z"
         id="path158" />
    </clipPath>
  </defs>
  <sodipodi:namedview
     id="namedview4"
     pagecolor="#000000"
     bordercolor="#cccccc"
     borderopacity="1"
     inkscape:showpageshadow="0"
     inkscape:pageopacity="1"
     inkscape:pagecheckerboard="0"
     inkscape:deskcolor="#d1d1d1"
     showgrid="false"
     inkscape:zoom="0.8911573"
     inkscape:cx="261.45777"
     inkscape:cy="346.17906"
     inkscape:window-width="1920"
     inkscape:window-height="1002"
     inkscape:window-x="0"
     inkscape:window-y="0"
     inkscape:window-maximized="1"
     inkscape:current-layer="g8" />
  <g
     id="g8"
     inkscape:groupmode="layer"
     inkscape:label="43033251 co e_cso e 5d_5t itdeenesfr"
     transform="matrix(1.3333333,0,0,-1.3333333,-24.32,760.01664)">
    <g
       id="g154"
       transform="matrix(27.244224,0,0,27.244224,-2032.4141,-15117.05)"
       style="fill:#ffffff">
      <g
         id="g156"
         clip-path="url(#clipPath160)"
         style="fill:#ffffff">
        <path
           d="m 88.20394,569.7554 1.07085,-1.744 c 0.05866,-0.0942 0.09346,-0.1955 0.09346,-0.3091 -0.002,-0.0973 -0.03082,-0.1966 -0.08352,-0.2807 l -1.08079,-1.7632 c -0.15809,-0.2533 -0.49118,-0.3324 -0.74174,-0.1763 -0.25155,0.1571 -0.3301,0.4915 -0.174,0.7459 l 0.90878,1.4794 -0.90878,1.4775 c -0.1561,0.2543 -0.07755,0.5907 0.174,0.7478 0.25156,0.155 0.58365,0.078 0.74174,-0.1773 z m -1.94383,0 1.07085,-1.744 c 0.05966,-0.0942 0.09346,-0.1955 0.09346,-0.3091 0,-0.0973 -0.02983,-0.1966 -0.08054,-0.2807 l -1.08377,-1.7632 c -0.15809,-0.2533 -0.49018,-0.3324 -0.73975,-0.1763 -0.25354,0.1571 -0.32911,0.4915 -0.17698,0.7459 l 0.91076,1.4794 -0.90976,1.4775 c -0.15313,0.2543 -0.07657,0.5907 0.17598,0.7478 0.25056,0.155 0.58166,0.078 0.73876,-0.1773 z m -4.09248,-5.4275 c 0.17002,-10e-4 0.31021,-0.079 0.40766,-0.1986 0.06363,-0.079 0.10837,-0.1763 0.12925,-0.2827 h 0.26747 l 0.004,0.0243 -0.8869,1.0964 c -0.12727,0.1379 -0.31121,0.2605 -0.50112,0.2655 h -2.42904 c -0.07358,10e-4 -0.11335,-0.0121 -0.11335,-0.0689 v -1.2575 c 0,-0.0719 0.08949,-0.0608 0.18395,-0.0608 0.04573,0.2492 0.23166,0.459 0.49714,0.4813 h -0.002 0.002 l 2.44097,10e-4 z m -2.9411,1.7643 h 2.37237 c 0.42953,0 0.87597,-0.2574 1.14641,-0.5898 l 0.87994,-1.0863 c 0.13523,-0.1682 0.19985,-0.377 0.19985,-0.5786 10e-4,-0.4591 -0.32214,-0.8492 -0.79045,-0.8492 h -3.80414 c -0.27442,-0.007 -0.54387,0.0558 -0.73677,0.2118 -0.17598,0.1439 -0.28734,0.3557 -0.28734,0.6516 v 1.371 c 0,0.6232 0.45836,0.8867 1.02013,0.8695 z m -1.49541,-3.4626 c 0.02189,-0.4074 0.39872,-0.5391 0.7497,-0.5533 l 7.01767,0.001 c 0.29331,0.0132 0.44643,0.3922 0.32513,0.6638 l -2.60602,3.1798 c -0.32812,0.3719 -0.72484,0.7296 -1.2359,0.7671 h -3.49392 c -0.35893,-0.0162 -0.73477,-0.1449 -0.75666,-0.5543 z m -1.65747,6.1874 c 0.11832,0.076 0.25454,0.0952 0.38082,0.0659 0.12726,-0.0294 0.2436,-0.1084 0.31717,-0.2281 l 0.64231,-1.0477 c 0.25653,0.1317 0.54487,0.2016 0.83122,0.2016 h 3.77432 c 0.81034,0 1.44767,-0.5776 1.96271,-1.1471 l 2.87051,-3.4787 c 0.17399,-0.2057 0.24757,-0.453 0.24757,-0.7033 0,-0.7204 -0.63435,-1.524 -1.3751,-1.524 h -7.47901 c -0.81929,10e-4 -1.66046,0.5867 -1.66046,1.4855 v 3.8821 c 0,0.1307 0.01889,0.2574 0.05369,0.378 v -10e-4 l 0.0696,0.1865 -0.13422,0.147 -0.65822,1.071 c -0.14617,0.2402 -0.07656,0.5604 0.15709,0.7124"
           style="fill:#ffffff;fill-opacity:1;fill-rule:evenodd;stroke:none"
           id="path162" />
      </g>
    </g>
  </g>
</svg>
