<?xml version="1.0" encoding="UTF-8" standalone="no"?>
<!-- Created with Inkscape (http://www.inkscape.org/) -->

<svg
   version="1.1"
   id="svg48"
   width="559.37012"
   height="793.70081"
   viewBox="0 0 559.37012 793.70081"
   sodipodi:docname="eco-40-60.svg"
   inkscape:version="1.2.1 (9c6d41e410, 2022-07-14)"
   inkscape:export-filename="eco-40-60.png"
   inkscape:export-xdpi="10.983783"
   inkscape:export-ydpi="10.983783"
   xmlns:inkscape="http://www.inkscape.org/namespaces/inkscape"
   xmlns:sodipodi="http://sodipodi.sourceforge.net/DTD/sodipodi-0.dtd"
   xmlns="http://www.w3.org/2000/svg"
   xmlns:svg="http://www.w3.org/2000/svg">
  <sodipodi:namedview
     id="namedview1200"
     pagecolor="#000000"
     bordercolor="#cccccc"
     borderopacity="1"
     inkscape:showpageshadow="0"
     inkscape:pageopacity="0"
     inkscape:pagecheckerboard="0"
     inkscape:deskcolor="#d1d1d1"
     showgrid="false"
     inkscape:zoom="0.84100809"
     inkscape:cx="234.24269"
     inkscape:cy="433.40843"
     inkscape:window-width="1920"
     inkscape:window-height="1002"
     inkscape:window-x="0"
     inkscape:window-y="0"
     inkscape:window-maximized="1"
     inkscape:current-layer="svg48" />
  <defs
     id="defs52">
    <clipPath
       clipPathUnits="userSpaceOnUse"
       id="clipPath5578">
      <path
         d="m 49.25976,419.1156 h 18.88615 v 14.38617 H 49.25976 Z"
         id="path5576" />
    </clipPath>
  </defs>
  <g
     id="g54"
     transform="matrix(1.3333333,0,0,-1.3333333,0,793.7008)"
     style="fill:#ffffff">
    <g
       id="g5572"
       transform="matrix(22.073807,0,0,22.073807,-1086.0313,-9112.6174)"
       style="fill:#ffffff">
      <g
         id="g5574"
         clip-path="url(#clipPath5578)"
         style="fill:#ffffff">
        <path
           d="M 52.80353,426.3389 H 49.2 v 7.0227 h 3.60353 v -0.9344 h -2.59757 v -2.0976 h 2.59757 v -0.9173 h -2.59757 v -2.1047 h 2.59757 z m 7.54569,1.759 c -0.30278,-0.6139 -0.71911,-1.0847 -1.25097,-1.4102 -0.53187,-0.3266 -1.15038,-0.4899 -1.85156,-0.4899 -0.51992,0 -1.00198,0.1028 -1.44122,0.3054 -0.44122,0.2026 -0.83464,0.502 -1.18424,0.9022 -0.29581,0.3306 -0.52091,0.7076 -0.6723,1.1309 -0.15339,0.4214 -0.22908,0.874 -0.22908,1.3568 0,0.4889 0.09263,0.9536 0.27589,1.3931 0.18426,0.4374 0.45418,0.8376 0.81074,1.1985 0.33666,0.3336 0.71015,0.5876 1.1225,0.759 0.41134,0.1724 0.85357,0.258 1.32767,0.258 0.71114,0 1.33563,-0.1693 1.87546,-0.51 0.53784,-0.3407 0.94322,-0.8235 1.21711,-1.4475 h -1.18324 c -0.22311,0.3115 -0.49601,0.5463 -0.81872,0.7046 -0.32469,0.1572 -0.69122,0.2359 -1.10057,0.2359 -0.32769,0 -0.63944,-0.0625 -0.93326,-0.1885 -0.29681,-0.125 -0.55875,-0.3075 -0.78584,-0.5443 -0.23904,-0.249 -0.42529,-0.5373 -0.55876,-0.8649 -0.13346,-0.3266 -0.20019,-0.6613 -0.20019,-1.004 0,-0.3659 0.06075,-0.7126 0.18027,-1.0392 0.12151,-0.3256 0.29482,-0.6088 0.52091,-0.8457 0.23805,-0.252 0.51294,-0.4466 0.82369,-0.5847 0.31275,-0.1381 0.62948,-0.2076 0.95318,-0.2076 0.3974,0 0.75496,0.0766 1.07368,0.2288 0.32072,0.1532 0.58266,0.374 0.78883,0.6633 z m 1.75994,1.7851 c 0,-0.3659 0.05976,-0.7126 0.18027,-1.0392 0.12052,-0.3256 0.29482,-0.6088 0.52091,-0.8457 0.23805,-0.252 0.51194,-0.4466 0.82369,-0.5847 0.30976,-0.1381 0.62947,-0.2076 0.95317,-0.2076 0.71713,0 1.31771,0.259 1.80077,0.7741 0.48306,0.5171 0.7241,1.1572 0.7241,1.9233 0,0.3235 -0.05877,0.635 -0.1743,0.9283 -0.11554,0.2944 -0.28585,0.5665 -0.50796,0.8135 -0.26295,0.2863 -0.54482,0.497 -0.84561,0.6341 -0.29979,0.136 -0.63346,0.2056 -0.997,0.2056 -0.32669,0 -0.63943,-0.0625 -0.93424,-0.1885 -0.29581,-0.125 -0.55776,-0.3075 -0.78485,-0.5443 -0.24004,-0.249 -0.42529,-0.5373 -0.55876,-0.8649 -0.13346,-0.3266 -0.20019,-0.6613 -0.20019,-1.004 z m -1.04879,0.0101 c 0,0.4919 0.09263,0.9586 0.27589,1.4001 0.18426,0.4405 0.45418,0.8377 0.81075,1.1915 0.33664,0.3336 0.71014,0.5876 1.12249,0.759 0.41134,0.1724 0.85357,0.258 1.32767,0.258 0.48504,0 0.93424,-0.0856 1.35057,-0.258 0.41434,-0.1714 0.79281,-0.4284 1.13644,-0.7691 0.35258,-0.3508 0.61852,-0.7429 0.7948,-1.1774 0.17829,-0.4344 0.26693,-0.9021 0.26693,-1.4041 0,-0.498 -0.07569,-0.9566 -0.22908,-1.3769 -0.15139,-0.4193 -0.38047,-0.7964 -0.68525,-1.13 -0.35856,-0.3941 -0.76094,-0.6884 -1.20316,-0.888 -0.44422,-0.1996 -0.92429,-0.3004 -1.44122,-0.3004 -0.52289,0 -1.00297,0.1028 -1.44121,0.3054 -0.44122,0.2026 -0.83664,0.502 -1.18424,0.9022 -0.29681,0.3306 -0.52091,0.7076 -0.6723,1.1309 -0.15338,0.4214 -0.22908,0.874 -0.22908,1.3568"
           style="fill:#ffffff;fill-opacity:1;fill-rule:nonzero;stroke:none"
           id="path5580" />
        <path
           d="m 52.07446,419.2164 h -0.69123 v 0.8759 H 49.2 v 0.6411 l 2.18323,3.4988 h 0.69123 v -3.4988 h 0.49999 v -0.6411 h -0.49999 z m -0.69123,1.517 v 2.4615 l -1.48404,-2.4615 z m 1.80376,0.246 v 1.4817 c 0,0.3115 0.02291,0.5494 0.07072,0.7187 0.04581,0.1684 0.1225,0.3256 0.22908,0.4678 0.16533,0.2187 0.36752,0.387 0.60656,0.504 0.23705,0.1159 0.50099,0.1733 0.78983,0.1733 0.2988,0 0.5717,-0.0615 0.81473,-0.1855 0.24402,-0.125 0.44919,-0.3044 0.61353,-0.5402 0.09163,-0.1341 0.15837,-0.2873 0.2002,-0.4627 0.04183,-0.1744 0.06275,-0.3901 0.06275,-0.6482 v -1.5281 c 0,-0.2742 -0.02291,-0.5 -0.06574,-0.6804 -0.04283,-0.1784 -0.10956,-0.3336 -0.20318,-0.4637 -0.15837,-0.2238 -0.36155,-0.3951 -0.60956,-0.5181 -0.248,-0.1209 -0.51891,-0.1824 -0.81273,-0.1824 -0.28685,0 -0.54979,0.0574 -0.78983,0.1743 -0.24203,0.117 -0.44721,0.2843 -0.61951,0.504 -0.1006,0.1301 -0.17331,0.2863 -0.21813,0.4708 -0.04581,0.1845 -0.06872,0.4233 -0.06872,0.7147 z m 0.73903,-0.127 v -0.0756 c 0,-0.1603 0.009,-0.2803 0.02689,-0.3559 0.01893,-0.0776 0.04881,-0.1461 0.09263,-0.2096 0.08366,-0.126 0.1992,-0.2248 0.34561,-0.2954 0.14641,-0.0715 0.30578,-0.1068 0.47808,-0.1068 0.32072,0 0.56175,0.0877 0.72111,0.2651 0.15936,0.1764 0.23804,0.4445 0.23804,0.8054 v 1.6823 c 0,0.2087 -0.009,0.3548 -0.02689,0.4385 -0.01793,0.0847 -0.0488,0.1583 -0.09163,0.2218 -0.08466,0.13 -0.2002,0.2298 -0.34761,0.3024 -0.14741,0.0715 -0.31075,0.1078 -0.48604,0.1078 -0.17331,0 -0.33068,-0.0332 -0.4731,-0.1008 -0.14343,-0.0685 -0.25896,-0.1643 -0.34462,-0.2883 -0.04681,-0.0665 -0.08068,-0.1481 -0.10159,-0.2429 -0.01992,-0.0958 -0.03088,-0.2389 -0.03088,-0.4324 z m 3.88241,0.5725 h 1.69519 v -0.634 h -1.69519 z m 4.72403,2.8073 h 0.79082 l -1.12349,-1.7046 c 0.07072,0.0273 0.13646,0.0484 0.2002,0.0605 0.06474,0.0141 0.1255,0.0212 0.18426,0.0212 0.43127,0 0.79979,-0.1643 1.10556,-0.4929 0.30478,-0.3306 0.45716,-0.7278 0.45716,-1.1925 0,-0.1552 -0.02091,-0.3104 -0.06274,-0.4657 -0.04183,-0.1552 -0.10558,-0.3084 -0.19024,-0.4596 -0.15637,-0.2903 -0.35856,-0.5091 -0.61055,-0.6592 -0.24999,-0.1492 -0.53883,-0.2238 -0.86552,-0.2238 -0.23406,0 -0.45318,0.0443 -0.65836,0.131 -0.20617,0.0877 -0.38944,0.2137 -0.54979,0.38 -0.15936,0.1643 -0.28286,0.3518 -0.36952,0.5605 -0.08764,0.2086 -0.13147,0.4223 -0.13147,0.637 0,0.4325 0.24601,1.0201 0.73804,1.761 v 0.003 z m -1.1464,-3.3002 c 0,-0.3075 0.0996,-0.5695 0.30079,-0.7862 0.2012,-0.2148 0.44223,-0.3226 0.7241,-0.3226 0.2978,0 0.54282,0.0998 0.73604,0.3004 0.19223,0.2016 0.28784,0.4576 0.28784,0.7701 0,0.3135 -0.09362,0.5685 -0.28386,0.7681 -0.18924,0.2006 -0.42828,0.3004 -0.71911,0.3004 -0.29083,0 -0.53784,-0.1018 -0.74102,-0.3055 -0.20418,-0.2026 -0.30478,-0.4445 -0.30478,-0.7247 z m 3.3376,0.0474 v 1.4817 c 0,0.3115 0.02291,0.5494 0.06972,0.7187 0.04582,0.1684 0.12251,0.3256 0.23007,0.4678 0.16434,0.2187 0.36653,0.387 0.60557,0.504 0.23805,0.1159 0.50198,0.1733 0.78983,0.1733 0.29979,0 0.5717,-0.0615 0.81572,-0.1855 0.24402,-0.125 0.44821,-0.3044 0.61354,-0.5402 0.09163,-0.1341 0.15836,-0.2873 0.1992,-0.4627 0.04283,-0.1744 0.06274,-0.3901 0.06274,-0.6482 v -1.5281 c 0,-0.2742 -0.02191,-0.5 -0.06473,-0.6804 -0.04283,-0.1784 -0.11056,-0.3336 -0.20319,-0.4637 -0.15935,-0.2238 -0.36254,-0.3951 -0.61055,-0.5181 -0.248,-0.1209 -0.51791,-0.1824 -0.81273,-0.1824 -0.28585,0 -0.54979,0.0574 -0.78983,0.1743 -0.24103,0.117 -0.4462,0.2843 -0.61951,0.504 -0.0996,0.1301 -0.17231,0.2863 -0.21813,0.4708 -0.04481,0.1845 -0.06772,0.4233 -0.06772,0.7147 z m 0.73903,-0.127 v -0.0756 c 0,-0.1603 0.008,-0.2803 0.0259,-0.3559 0.01992,-0.0776 0.04979,-0.1461 0.09362,-0.2096 0.08366,-0.126 0.1982,-0.2248 0.34462,-0.2954 0.1464,-0.0715 0.30577,-0.1068 0.47808,-0.1068 0.32171,0 0.56174,0.0877 0.7221,0.2651 0.15836,0.1764 0.23804,0.4445 0.23804,0.8054 v 1.6823 c 0,0.2087 -0.01,0.3548 -0.02689,0.4385 -0.01892,0.0847 -0.04881,0.1583 -0.09263,0.2218 -0.08466,0.13 -0.1992,0.2298 -0.34661,0.3024 -0.14741,0.0715 -0.31075,0.1078 -0.48704,0.1078 -0.17231,0 -0.33067,-0.0332 -0.4731,-0.1008 -0.14243,-0.0685 -0.25796,-0.1643 -0.34363,-0.2883 -0.0478,-0.0665 -0.08166,-0.1481 -0.10258,-0.2429 -0.01992,-0.0958 -0.02988,-0.2389 -0.02988,-0.4324 v -1.7156"
           style="fill:#ffffff;fill-opacity:1;fill-rule:nonzero;stroke:none"
           id="path5582" />
      </g>
    </g>
  </g>
</svg>
