<?xml version="1.0" encoding="UTF-8" standalone="no"?>
<!-- Created with Inkscape (http://www.inkscape.org/) -->

<svg
   version="1.1"
   id="svg2"
   width="559.37012"
   height="793.70081"
   viewBox="0 0 559.37012 793.70081"
   sodipodi:docname="extra-rinse.svg"
   inkscape:export-filename="extra-rinse.png"
   inkscape:export-xdpi="10.983783"
   inkscape:export-ydpi="10.983783"
   inkscape:version="1.2.1 (9c6d41e410, 2022-07-14)"
   xmlns:inkscape="http://www.inkscape.org/namespaces/inkscape"
   xmlns:sodipodi="http://sodipodi.sourceforge.net/DTD/sodipodi-0.dtd"
   xmlns="http://www.w3.org/2000/svg"
   xmlns:svg="http://www.w3.org/2000/svg">
  <defs
     id="defs6">
    <clipPath
       clipPathUnits="userSpaceOnUse"
       id="clipPath1684">
      <path
         d="m 293.8196,304.8756 h 12.94858 v 13.52823 H 293.8196 Z"
         id="path1682" />
    </clipPath>
  </defs>
  <sodipodi:namedview
     id="namedview4"
     pagecolor="#000000"
     bordercolor="#cccccc"
     borderopacity="1"
     inkscape:showpageshadow="0"
     inkscape:pageopacity="0"
     inkscape:pagecheckerboard="0"
     inkscape:deskcolor="#d1d1d1"
     showgrid="false"
     inkscape:zoom="0.84100809"
     inkscape:cx="229.4865"
     inkscape:cy="395.35886"
     inkscape:window-width="1920"
     inkscape:window-height="1002"
     inkscape:window-x="0"
     inkscape:window-y="0"
     inkscape:window-maximized="1"
     inkscape:current-layer="g8" />
  <g
     id="g8"
     inkscape:groupmode="layer"
     inkscape:label="43033251 co e_cso e 5d_5t itdeenesfr"
     transform="matrix(1.3333333,0,0,-1.3333333,0,793.7008)">
    <g
       id="g1678"
       transform="matrix(29.430254,0,0,29.430254,-8627.9615,-8873.9976)"
       style="fill:#ffffff">
      <g
         id="g1680"
         clip-path="url(#clipPath1684)"
         style="fill:#ffffff">
        <path
           d="m 302.4938,311.4657 0.6364,1.1703 c 0.2078,-0.1273 0.4215,-0.2426 0.6413,-0.352 l -0.6344,-1.1693 c -0.2187,0.1074 -0.4345,0.2267 -0.6433,0.351 z m 0.9873,1.8166 0.6354,1.1712 c 0.2068,-0.1282 0.4206,-0.2445 0.6443,-0.3519 l -0.6383,-1.1703 c -0.2198,0.1084 -0.4336,0.2247 -0.6414,0.351 z m 0.9854,1.8165 0.6373,1.1733 c 0.2038,-0.1313 0.4206,-0.2496 0.6413,-0.351 l -0.6353,-1.1723 c -0.2208,0.1054 -0.4355,0.2218 -0.6433,0.35 z m -3.5854,-2.4569 0.8461,1.0271 c 0.183,-0.163 0.3689,-0.3171 0.5638,-0.4663 l -0.8452,-1.0271 c -0.1938,0.1492 -0.3818,0.3043 -0.5657,0.4663 z m 1.3124,1.5949 0.8482,1.0261 c 0.1799,-0.1641 0.3669,-0.3182 0.5637,-0.4654 l -0.8461,-1.029 c -0.1959,0.1491 -0.3828,0.3052 -0.5658,0.4683 z m 1.3165,1.5958 0.8491,1.0291 c 0.174,-0.168 0.3629,-0.3251 0.5638,-0.4663 l -0.8492,-1.0291 c -0.1968,0.1442 -0.3848,0.3003 -0.5637,0.4663 z m -3.9921,-1.731 1.0281,0.8471 c 0.1472,-0.1939 0.3043,-0.3828 0.4653,-0.5638 l -1.0251,-0.8481 c -0.163,0.183 -0.3201,0.3719 -0.4683,0.5648 z m 1.5958,1.3154 1.0281,0.8481 c 0.1442,-0.1978 0.2993,-0.3858 0.4644,-0.5657 l -1.0261,-0.8472 c -0.1641,0.181 -0.3202,0.3699 -0.4664,0.5648 z m 1.5949,1.3154 1.0281,0.8462 c 0.1412,-0.1989 0.2983,-0.3868 0.4663,-0.5638 l -1.0291,-0.8481 c -0.166,0.179 -0.3211,0.3689 -0.4653,0.5657 z m -4.2516,-0.9386 1.1693,0.6354 c 0.1104,-0.2188 0.2277,-0.4335 0.352,-0.6433 l -1.1703,-0.6354 c -0.1253,0.2088 -0.2406,0.4256 -0.351,0.6433 z m 1.8166,0.9864 1.1722,0.6343 c 0.1044,-0.2187 0.2218,-0.4335 0.349,-0.6403 l -1.1702,-0.6364 c -0.1263,0.2088 -0.2436,0.4236 -0.351,0.6424 z m 1.8175,0.9863 1.1733,0.6373 c 0.1014,-0.2247 0.2187,-0.4375 0.351,-0.6433 l -1.1733,-0.6363 c -0.1292,0.2068 -0.2466,0.4216 -0.351,0.6423 z m 2.3386,-11.9105 1.3582,7.6539 c 0.2148,0.8005 1.1076,0.4723 0.9654,-0.1809 l -1.4795,-8.4534 h -10.0194 l -1.4785,8.4534 c -0.1431,0.6552 0.7507,0.9814 0.9645,0.1829 l 1.3592,-7.655 z m -4.8939,5.0817 v -1.0639 h 1.0639 c 0.3192,0 0.5787,-0.2595 0.5787,-0.5796 0,-0.3192 -0.2595,-0.5797 -0.5797,-0.5797 h -1.0629 v -1.0629 c 0,-0.3191 -0.2605,-0.5796 -0.5786,-0.5796 -0.3212,0 -0.5807,0.2605 -0.5807,0.5796 v 1.0629 h -1.0639 c -0.3182,0 -0.5797,0.2605 -0.5797,0.5797 0.001,0.3201 0.2605,0.5796 0.5797,0.5796 h 1.0639 v 1.0639 c 0,0.3172 0.2595,0.5787 0.5807,0.5787 0.3181,0 0.5786,-0.2615 0.5786,-0.5787"
           style="fill:#ffffff;fill-opacity:1;fill-rule:evenodd;stroke:none"
           id="path1686" />
      </g>
    </g>
  </g>
</svg>
