<?xml version="1.0" encoding="UTF-8" standalone="no"?>
<!-- Created with Inkscape (http://www.inkscape.org/) -->

<svg
   version="1.1"
   id="svg2"
   width="559.37012"
   height="793.70081"
   viewBox="0 0 559.37012 793.70081"
   sodipodi:docname="hygiene-plus.svg"
   inkscape:export-filename="hygiene-plus.png"
   inkscape:export-xdpi="10.983783"
   inkscape:export-ydpi="10.983783"
   inkscape:version="1.2.1 (9c6d41e410, 2022-07-14)"
   xmlns:inkscape="http://www.inkscape.org/namespaces/inkscape"
   xmlns:sodipodi="http://sodipodi.sourceforge.net/DTD/sodipodi-0.dtd"
   xmlns="http://www.w3.org/2000/svg"
   xmlns:svg="http://www.w3.org/2000/svg">
  <defs
     id="defs6">
    <clipPath
       clipPathUnits="userSpaceOnUse"
       id="clipPath7974">
      <path
         d="m 48.54034,230.9556 h 20.30034 v 15.92021 H 48.54034 Z"
         id="path7972" />
    </clipPath>
  </defs>
  <sodipodi:namedview
     id="namedview4"
     pagecolor="#000000"
     bordercolor="#cccccc"
     borderopacity="1"
     inkscape:showpageshadow="0"
     inkscape:pageopacity="0"
     inkscape:pagecheckerboard="0"
     inkscape:deskcolor="#d1d1d1"
     showgrid="false"
     inkscape:zoom="0.84100809"
     inkscape:cx="171.22309"
     inkscape:cy="419.13984"
     inkscape:window-width="1920"
     inkscape:window-height="1002"
     inkscape:window-x="0"
     inkscape:window-y="0"
     inkscape:window-maximized="1"
     inkscape:current-layer="g8" />
  <g
     id="g8"
     inkscape:groupmode="layer"
     inkscape:label="43033251 co e_cso e 5d_5t itdeenesfr"
     transform="matrix(1.3333333,0,0,-1.3333333,0,793.7008)">
    <g
       id="g7968"
       transform="matrix(19.299267,0,0,19.299267,-922.91997,-4313.2601)"
       style="fill:#ffffff">
      <g
         id="g7970"
         clip-path="url(#clipPath7974)"
         style="fill:#ffffff">
        <path
           d="m 60.48621,240.288 h -3.40836 v 0.9769 h 3.40836 v 3.4059 h 0.97756 v -3.4059 c 0,-0.5377 -0.43849,-0.9769 -0.97756,-0.9769 z m 2.73957,0 h 3.40635 v 0.9769 h -3.40635 v 3.4059 h -0.97957 v -3.4059 c 0,-0.5377 0.4395,-0.9769 0.97957,-0.9769 z m 0,-0.7819 h 3.40635 v -0.9768 h -3.40635 v -3.406 h -0.97957 v 3.406 c 0,0.5386 0.4395,0.9768 0.97957,0.9768 z m -2.73957,0 h -3.40836 v -0.9768 h 3.40836 v -3.406 h 0.97756 v 3.406 c 0,0.5386 -0.43849,0.9768 -0.97756,0.9768 z m 1.36979,6.5335 v 0 c 3.38523,0 6.14591,-2.7597 6.14591,-6.1425 0,-3.3829 -2.76068,-6.1416 -6.14591,-6.1416 -1.11936,0 -2.16933,0.3015 -3.07548,0.8271 -0.18505,-0.2794 -0.49883,-0.4462 -0.83072,-0.4462 v -0.002 h -0.02615 c 1.12037,-0.7668 2.47607,-1.2171 3.93235,-1.2171 3.84685,0 6.98468,3.1356 6.98468,6.9798 0,3.8451 -3.13783,6.9787 -6.98468,6.9787 -3.84686,0 -6.9857,-3.1336 -6.9857,-6.9787 0,-0.6794 0.09957,-1.3377 0.28261,-1.9588 0.33289,-0.014 0.64768,-0.0754 0.94537,-0.1859 -0.25143,0.6683 -0.38921,1.3909 -0.38921,2.1447 0,3.3828 2.76169,6.1425 6.14693,6.1425"
           style="fill:#ffffff;fill-opacity:1;fill-rule:evenodd;stroke:none"
           id="path7976" />
        <path
           d="m 48.48,232.8168 h 0.57325 c 0.02112,-0.3748 0.16695,-0.6924 0.43749,-0.9527 0.27154,-0.2603 0.58734,-0.3909 0.94939,-0.3909 0.3862,0 0.71507,0.1457 0.98258,0.4371 0.26652,0.2895 0.40028,0.6503 0.40028,1.0764 0,0.4311 -0.13376,0.7799 -0.40028,1.0482 -0.26751,0.2673 -0.61851,0.401 -1.04996,0.401 -0.24439,0 -0.46565,-0.0553 -0.66377,-0.1648 -0.19712,-0.1096 -0.37212,-0.2754 -0.52499,-0.4985 l -0.43547,0.201 0.50889,2.8482 h 2.59676 v -0.5648 h -2.11301 l -0.28964,-1.604 c 0.16695,0.1186 0.32987,0.204 0.49179,0.2593 0.16393,0.0532 0.33892,0.0804 0.52699,0.0804 0.5622,0 1.02181,-0.19 1.38085,-0.5689 0.35803,-0.3788 0.53705,-0.8633 0.53705,-1.4542 0,-0.5578 -0.19108,-1.0321 -0.57527,-1.4251 -0.38217,-0.3919 -0.84782,-0.5889 -1.39291,-0.5889 -0.51794,0 -0.96247,0.1738 -1.32855,0.5236 -0.36508,0.3487 -0.57024,0.7949 -0.61147,1.3376 z m 6.49892,0.7538 c 0.39424,0 0.72713,0.1367 0.99365,0.411 0.26651,0.2734 0.40027,0.6101 0.40027,1.0111 0,0.404 -0.13577,0.7467 -0.40932,1.0251 -0.27155,0.2774 -0.60243,0.416 -0.99265,0.416 -0.37613,0 -0.69192,-0.1346 -0.94536,-0.403 -0.25546,-0.2683 -0.38218,-0.612 -0.38218,-1.0301 0,-0.4171 0.12572,-0.7598 0.37815,-1.0271 0.25042,-0.2693 0.57024,-0.403 0.95744,-0.403 z m -0.13477,-2.5005 h -0.70701 l 1.34263,2.0844 c -0.1227,-0.0281 -0.23635,-0.0492 -0.33993,-0.0643 -0.10259,-0.0151 -0.19612,-0.0221 -0.27959,-0.0221 -0.52197,0 -0.95342,0.1819 -1.29536,0.5447 -0.34094,0.3638 -0.5109,0.8211 -0.5109,1.3718 0,0.5658 0.18404,1.0342 0.55314,1.404 0.36809,0.3699 0.83776,0.5548 1.40699,0.5548 0.55817,0 1.02281,-0.1819 1.39292,-0.5467 0.3711,-0.3649 0.55515,-0.8141 0.55515,-1.3447 0,-0.4613 -0.23735,-1.0573 -0.71205,-1.7869 -0.04425,-0.0704 -0.07844,-0.1236 -0.10258,-0.1618 z m 3.10666,4.0613 h -0.55616 l 0.60443,1.6904 h 0.56924 l -0.61751,-1.6904"
           style="fill:#ffffff;fill-opacity:1;fill-rule:nonzero;stroke:none"
           id="path7978" />
      </g>
    </g>
  </g>
</svg>
