<?xml version="1.0" encoding="UTF-8" standalone="no"?>
<svg
   viewBox="0 0 24 24"
   version="1.1"
   id="svg4"
   sodipodi:docname="lock-off.svg"
   inkscape:version="1.2.1 (9c6d41e410, 2022-07-14)"
   xmlns:inkscape="http://www.inkscape.org/namespaces/inkscape"
   xmlns:sodipodi="http://sodipodi.sourceforge.net/DTD/sodipodi-0.dtd"
   xmlns="http://www.w3.org/2000/svg"
   xmlns:svg="http://www.w3.org/2000/svg">
  <defs
     id="defs8" />
  <sodipodi:namedview
     id="namedview6"
     pagecolor="#000000"
     bordercolor="#cccccc"
     borderopacity="1"
     inkscape:showpageshadow="0"
     inkscape:pageopacity="1"
     inkscape:pagecheckerboard="0"
     inkscape:deskcolor="#d1d1d1"
     showgrid="false"
     inkscape:zoom="19.666667"
     inkscape:cx="11.491525"
     inkscape:cy="12.330508"
     inkscape:window-width="1920"
     inkscape:window-height="1002"
     inkscape:window-x="0"
     inkscape:window-y="0"
     inkscape:window-maximized="1"
     inkscape:current-layer="svg4" />
  <path
     d="M12,17C10.89,17 10,16.1 10,15C10,13.89 10.89,13 12,13A2,2 0 0,1 14,15A2,2 0 0,1 12,17M18,20V10H6V20H18M18,8A2,2 0 0,1 20,10V20A2,2 0 0,1 18,22H6C4.89,22 4,21.1 4,20V10C4,8.89 4.89,8 6,8H7V6A5,5 0 0,1 12,1A5,5 0 0,1 17,6V8H18M12,3A3,3 0 0,0 9,6V8H15V6A3,3 0 0,0 12,3Z"
     id="path2"
     style="fill:#ffffff;opacity:0.5" />
</svg>
