<?xml version="1.0" encoding="UTF-8" standalone="no"?>
<!-- Created with Inkscape (http://www.inkscape.org/) -->

<svg
   version="1.1"
   id="svg2"
   width="559.37012"
   height="793.70081"
   viewBox="0 0 559.37012 793.70081"
   sodipodi:docname="perfect-cotton.svg"
   inkscape:export-filename="perfect-cotton.png"
   inkscape:export-xdpi="10.983783"
   inkscape:export-ydpi="10.983783"
   inkscape:version="1.2.1 (9c6d41e410, 2022-07-14)"
   xmlns:inkscape="http://www.inkscape.org/namespaces/inkscape"
   xmlns:sodipodi="http://sodipodi.sourceforge.net/DTD/sodipodi-0.dtd"
   xmlns="http://www.w3.org/2000/svg"
   xmlns:svg="http://www.w3.org/2000/svg">
  <defs
     id="defs6">
    <clipPath
       clipPathUnits="userSpaceOnUse"
       id="clipPath9444">
      <path
         d="m 47.28,115.8156 h 22.94028 v 11.846 H 47.28 Z"
         id="path9442" />
    </clipPath>
    <clipPath
       clipPathUnits="userSpaceOnUse"
       id="clipPath9454">
      <path
         d="m 47.28,115.7556 h 23.76 v 12 H 47.28 Z"
         id="path9452" />
    </clipPath>
  </defs>
  <sodipodi:namedview
     id="namedview4"
     pagecolor="#000000"
     bordercolor="#cccccc"
     borderopacity="1"
     inkscape:showpageshadow="0"
     inkscape:pageopacity="0"
     inkscape:pagecheckerboard="0"
     inkscape:deskcolor="#d1d1d1"
     showgrid="false"
     inkscape:zoom="1.1893651"
     inkscape:cx="167.31616"
     inkscape:cy="435.10609"
     inkscape:window-width="1920"
     inkscape:window-height="1002"
     inkscape:window-x="0"
     inkscape:window-y="0"
     inkscape:window-maximized="1"
     inkscape:current-layer="g8" />
  <g
     id="g8"
     inkscape:groupmode="layer"
     inkscape:label="43033251 co e_cso e 5d_5t itdeenesfr"
     transform="matrix(1.3333333,0,0,-1.3333333,0,793.7008)">
    <g
       id="g123902"
       transform="matrix(17.068038,0,0,17.068038,-792.98584,-1780.2013)"
       style="fill:#ffffff">
      <g
         id="g9438"
         style="fill:#ffffff">
        <g
           id="g9440"
           clip-path="url(#clipPath9444)"
           style="fill:#ffffff">
          <path
             d="m 68.61549,119.9926 c 0.69597,0.503 0.99396,1.259 0.89496,1.964 -0.09999,1.009 -0.74547,1.664 -1.64043,1.412 l -0.54648,-0.151 0.09999,0.504 c 0.44649,2.52 -2.2374,3.931 -3.87585,2.066 l -0.44946,-0.504 -0.1485,0.656 c -0.1485,0.906 -1.04346,1.259 -1.93842,0.957 -0.69597,-0.252 -1.24245,-0.806 -1.29096,-1.713 1.12068,-0.488 1.85526,-2.503 2.08692,-3.681 0.79497,1.362 1.98693,2.068 2.6829,1.664 0.64746,-0.352 0.59697,-1.713 -0.04851,-3.125 0.98505,0.5 3.3363,0.657 4.17384,-0.049 z m -9.59112,5.191 v 0 c 0.0495,1.208 0.84447,2.015 1.73943,2.317 0.94347,0.353 2.18592,0.152 2.6829,-0.856 2.03841,1.663 4.8708,0.1 4.72131,-2.57 1.19196,0.1 1.93842,-0.958 2.03841,-2.016 0.09801,-1.008 -0.29997,-2.066 -1.34343,-2.672 -0.22968,-1.638 -4.35105,-2.261 -5.71428,-1.966 -0.49698,-0.251 -1.19196,-0.303 -1.78893,0 -1.38204,-1.682 -3.34323,-2.219 -5.3163,-1.008 l 0.49599,0.908 c 1.59687,-1.006 2.85714,-0.481 4.02534,0.706 -0.29799,0.352 -0.44748,0.806 -0.44748,1.21 -0.85239,1.056 -2.48787,5.046 -1.09296,5.947"
             style="fill:#ffffff;fill-opacity:1;fill-rule:evenodd;stroke:none"
             id="path9446" />
        </g>
      </g>
      <g
         id="g9448"
         style="fill:#ffffff">
        <g
           id="g9450"
           clip-path="url(#clipPath9454)"
           style="fill:#ffffff">
          <path
             d="m 47.28,118.0426 h 0.58905 c 0.02277,-0.388 0.17226,-0.718 0.44946,-0.988 0.27918,-0.27 0.6039,-0.406 0.97515,-0.406 0.39798,0 0.73458,0.151 1.00881,0.454 0.27522,0.301 0.41184,0.674 0.41184,1.116 0,0.449 -0.13662,0.811 -0.41184,1.089 -0.27423,0.278 -0.63459,0.416 -1.07811,0.416 -0.25146,0 -0.47817,-0.057 -0.68211,-0.17 -0.20196,-0.113 -0.38214,-0.286 -0.53856,-0.518 l -0.44847,0.208 0.5247,2.958 h 2.66607 v -0.586 h -2.17008 l -0.297,-1.666 c 0.17127,0.123 0.33858,0.213 0.5049,0.268 0.16731,0.057 0.34848,0.084 0.54252,0.084 0.57519,0 1.04841,-0.196 1.41669,-0.59 0.36729,-0.393 0.55242,-0.896 0.55242,-1.509 0,-0.58 -0.19701,-1.072 -0.59103,-1.48 -0.39303,-0.408 -0.8712,-0.612 -1.43154,-0.612 -0.53163,0 -0.98802,0.181 -1.36422,0.543 -0.37521,0.363 -0.58509,0.827 -0.62865,1.389 z m 6.67656,0.783 c 0.40491,0 0.74547,0.143 1.0197,0.427 0.27423,0.284 0.41085,0.634 0.41085,1.049 0,0.421 -0.13959,0.776 -0.41976,1.065 -0.27918,0.288 -0.61875,0.432 -1.01871,0.432 -0.38709,0 -0.71181,-0.14 -0.97218,-0.418 -0.26235,-0.279 -0.39303,-0.636 -0.39303,-1.07 0,-0.432 0.1287,-0.788 0.38808,-1.067 0.25839,-0.278 0.58707,-0.418 0.98505,-0.418 z m -0.1386,-2.596 H 53.0913 l 1.37907,2.165 c -0.12573,-0.03 -0.24255,-0.053 -0.34947,-0.068 -0.10494,-0.015 -0.20097,-0.022 -0.2871,-0.022 -0.53559,0 -0.97911,0.189 -1.33056,0.566 -0.35046,0.378 -0.5247,0.852 -0.5247,1.423 0,0.588 0.19008,1.074 0.56826,1.458 0.37818,0.384 0.86031,0.577 1.4454,0.577 0.5742,0 1.05039,-0.19 1.43055,-0.569 0.38115,-0.378 0.57024,-0.844 0.57024,-1.396 0,-0.479 -0.24354,-1.097 -0.73062,-1.855 -0.04653,-0.073 -0.08118,-0.128 -0.10593,-0.168 l -1.33848,-2.111"
             style="fill:#ffffff;fill-opacity:1;fill-rule:nonzero;stroke:none"
             id="path9456" />
          <path
             d="m 57.00972,120.4456 h -0.57321 l 0.62172,1.756 h 0.5841 l -0.63261,-1.756"
             style="fill:#ffffff;fill-opacity:1;fill-rule:nonzero;stroke:none"
             id="path9458" />
        </g>
      </g>
    </g>
  </g>
</svg>
