<?xml version="1.0" encoding="UTF-8" standalone="no"?>
<!-- Created with Inkscape (http://www.inkscape.org/) -->

<svg
   version="1.1"
   id="svg2"
   width="559.37012"
   height="793.70081"
   viewBox="0 0 559.37012 793.70081"
   xml:space="preserve"
   sodipodi:docname="rinse-on-test.svg"
   inkscape:version="1.2.1 (9c6d41e410, 2022-07-14)"
   xmlns:inkscape="http://www.inkscape.org/namespaces/inkscape"
   xmlns:sodipodi="http://sodipodi.sourceforge.net/DTD/sodipodi-0.dtd"
   xmlns="http://www.w3.org/2000/svg"
   xmlns:svg="http://www.w3.org/2000/svg"><sodipodi:namedview
     id="namedview717"
     pagecolor="#000000"
     bordercolor="#cccccc"
     borderopacity="1"
     inkscape:showpageshadow="0"
     inkscape:pageopacity="1"
     inkscape:pagecheckerboard="0"
     inkscape:deskcolor="#d1d1d1"
     showgrid="false"
     inkscape:zoom="0.84100809"
     inkscape:cx="273.48132"
     inkscape:cy="371.57787"
     inkscape:window-width="1920"
     inkscape:window-height="1002"
     inkscape:window-x="0"
     inkscape:window-y="0"
     inkscape:window-maximized="1"
     inkscape:current-layer="svg2" /><defs
     id="defs6"><clipPath
       clipPathUnits="userSpaceOnUse"
       id="clipPath5174"><path
         d="m 52.37965,441.0156 h 13.75296 v 17.798 H 52.37965 Z"
         id="path5172" /></clipPath><clipPath
       clipPathUnits="userSpaceOnUse"
       id="clipPath6806"><path
         d="m 53.04,326.7756 h 11.449 v 11.84601 H 53.04 Z"
         id="path6804" /></clipPath></defs><g
     id="g8"
     transform="matrix(1.3333333,0,0,-1.3333333,0,793.7008)"><g
       id="g5168"
       transform="matrix(30.309522,0,0,30.309522,-1584.9202,-13339.059)"
       style="fill:#ffffff"><g
         id="g5170"
         clip-path="url(#clipPath5174)"
         style="fill:#ffffff"><path
           id="path5176"
           style="fill:#ffffff;fill-opacity:1;fill-rule:evenodd;stroke:none"
           d="m 62.330166,458.81388 c -0.171471,-0.002 -0.326091,-0.0823 -0.493879,-0.2273 -0.448415,-0.37595 -0.912764,-0.73997 -1.406919,-1.04797 -0.81929,-0.509 -1.680333,-0.51395 -2.502598,-0.006 -0.5051,0.31095 -0.974398,0.68399 -1.434758,1.06199 -0.25155,0.208 -0.465307,0.28401 -0.772547,0.13701 -0.537905,-0.253 -1.091748,-0.47501 -1.633633,-0.72001 -0.39573,-0.179 -0.634325,-0.493 -0.720835,-0.92 -0.337055,-1.682 -0.669179,-3.36601 -1.007234,-5.05101 -0.12826,-0.635 0.06465,-0.96 0.688066,-1.163 0.3132,-0.101 0.618448,-0.22299 0.938608,-0.29999 0.342035,-0.083 0.460356,-0.28401 0.458356,-0.62301 -0.008,-1.324 -9.9e-4,-2.653 0,-3.981 -9.9e-4,-0.742 0.240621,-0.982 0.975386,-0.985 l 1.274691,0.004 h 0.186938 l 0.277363,9.7e-4 v 2.4e-4 l 4.8e-5,-2.4e-4 c 0,0.0557 -0.0016,0.11015 -0.0044,0.16321 -9.53e-4,0.0177 -0.0021,0.0352 -0.0033,0.0526 -0.01359,0.19111 -0.04373,0.36304 -0.07883,0.50915 -0.0032,0.0133 -0.0064,0.0263 -0.0097,0.0392 -0.0261,0.10282 -0.05425,0.19165 -0.07999,0.26398 -0.0032,0.009 -0.0064,0.0178 -0.0095,0.0263 -0.02192,0.0596 -0.04156,0.1064 -0.05592,0.13856 h -0.03282 l -0.877953,-0.002 c -0.61944,0.002 -0.61946,0.004 -0.57372,0.622 0,0 -0.01789,7.11799 -0.02189,7.41399 -0.005,0.167 -0.04671,0.31802 -0.25054,0.32202 -0.21973,0.003 -0.267474,-0.15001 -0.265474,-0.33101 0.002,-0.277 0.002,-0.55201 0,-0.87501 l -0.03876,-1.15101 -0.002,-1.05001 c -0.333076,0.106 -0.66614,0.21501 -0.995249,0.31501 -0.38479,0.117 -0.297299,0.28202 -0.240633,0.64902 0,0 0.174027,1.00997 0.271467,1.58197 0.09843,0.573 0.362881,1.91002 0.573671,2.83902 0.03778,0.167 0.220733,0.34599 0.379822,0.42699 0.413616,0.221 0.857081,0.38403 1.283631,0.58503 0.15809,0.079 0.242604,0.032 0.374844,-0.063 0.464326,-0.352 0.93065,-0.71999 1.436739,-1.00399 0.813326,-0.469 1.679357,-0.4641 2.496653,0.008 0.495145,0.282 0.949536,0.64096 1.405905,0.99196 0.14119,0.107 0.233668,0.15 0.398718,0.067 0.423559,-0.199 0.870985,-0.35602 1.280635,-0.57802 0.166039,-0.09 0.316198,-0.284 0.375858,-0.463 0.11136,-0.328 0.670137,-3.26499 0.670137,-3.26499 0.03878,-0.187 0.110357,-0.63702 0.180946,-1.04402 0.0696,-0.41 0.151146,-0.57697 -0.03378,-0.64297 -0.392735,-0.142 -0.793459,-0.26003 -1.193158,-0.38703 0,0 -0.269458,-0.12199 -0.107388,1.07601 0.03082,0.628 0.06963,1.24802 0.05471,1.87601 -0.003,0.198 0.04376,0.463 -0.248559,0.46 -0.304246,0.001 -0.265489,-0.27201 -0.266489,-0.48001 l -0.0099,-3.48697 c 0.09545,-0.033 0.192875,-0.059 0.290315,-0.08 0.32016,-0.068 0.625434,-0.081 0.85809,-0.052 0.08352,0.058 0.21079,0.10301 0.40766,0.16601 l 0.08351,0.027 c 0.05071,0.025 0.105377,0.041 0.160067,0.051 0.19985,0.064 0.400732,0.12499 0.602572,0.18999 0.591599,0.194 0.787447,0.50903 0.667141,1.12303 -0.21676,1.096 -0.443446,2.191 -0.668156,3.288 -0.11931,0.597 -0.238633,1.19498 -0.358943,1.78998 -0.08352,0.426 -0.32413,0.73998 -0.71489,0.92198 -0.533925,0.244 -1.076824,0.45603 -1.60478,0.70803 -0.121552,0.0577 -0.230491,0.0845 -0.333377,0.0833 z" /></g></g><path
       id="path676"
       clip-path="url(#clipPath645)"
       style="fill:#ffffff;fill-opacity:1;fill-rule:evenodd;stroke:none;stroke-width:30.963"
       d="m 292.94254,360.35503 -31.892,-17.30826 c 2.81764,-6.06876 6.03879,-11.92171 9.50665,-17.58791 l 31.95308,17.3707 c -3.59168,5.57335 -6.75009,11.42575 -9.56773,17.52547 z m 12.91264,-22.4478 -28.02174,-23.0994 c 3.9323,-5.38757 8.17349,-10.55827 12.69409,-15.35752 l 28.02173,23.06818 c -4.58252,4.79924 -8.82373,9.93924 -12.69408,15.38874 z m -62.42241,-4.49064 -31.92322,-17.30826 c 2.91051,-5.97587 6.09987,-11.79708 9.56773,-17.49424 l 31.86214,17.33947 c -3.46786,5.63528 -6.65807,11.48716 -9.50665,17.46303 z m 79.35871,-15.07924 -23.09804,-28.05159 c 4.86119,-4.52061 9.96998,-8.76315 15.35752,-12.69544 l 23.09804,28.02173 c -5.41852,3.83941 -10.5273,8.11183 -15.35752,12.7253 z m -128.8997,-11.76554 -31.92187,-17.33948 c 3.00341,-5.91391 6.1914,-11.76499 9.56638,-17.52411 l 31.92322,17.36935 c -3.4369,5.66622 -6.59531,11.48744 -9.56773,17.49424 z m 149.21078,-4.30331 -17.33813,-31.95444 c 5.60429,-3.52978 11.45537,-6.68792 17.5241,-9.53651 l 17.33949,31.92322 c -6.0997,2.78664 -11.95213,5.97605 -17.52546,9.56773 z m -80.7203,-0.2172 -28.02174,-23.06683 c 4.02519,-5.32561 8.26776,-10.46587 12.69544,-15.41996 l 28.02174,23.06683 c -4.48964,4.9231 -8.76314,10.09435 -12.69544,15.41996 z M 144.41322,279.66459 112.49,262.38755 c 3.03438,-5.97583 6.22375,-11.82828 9.56774,-17.52546 l 31.892,17.30826 c -3.37498,5.72813 -6.56407,11.54936 -9.53652,17.49424 z m 142.52234,-4.86124 -23.12927,-27.99052 c 4.98506,-4.45865 10.09434,-8.66891 15.41996,-12.69408 l 23.09805,27.95929 c -5.35661,3.99423 -10.46565,8.23567 -15.38874,12.72531 z m -68.02486,-8.60662 -27.99052,-23.06818 c 4.0252,-5.26371 8.29758,-10.40346 12.72531,-15.35752 l 27.95929,23.06682 c -4.42768,4.95408 -8.66892,10.06421 -12.69408,15.35888 z m 97.28599,-13.50045 -17.30825,-31.92321 c 5.6662,-3.4369 11.48635,-6.59503 17.52409,-9.53652 l 17.30827,31.892 c -6.00681,2.9105 -11.85788,6.0999 -17.52411,9.56773 z M 251.08099,231.363 228.01416,203.37249 c 4.98502,-4.45868 10.12394,-8.6705 15.41861,-12.72666 l 23.00573,27.99051 c -5.29464,4.05614 -10.40346,8.26801 -15.35751,12.72666 z m -75.64322,-0.95976 -27.92806,-23.0994 c 4.05613,-5.20179 8.29735,-10.3725 12.69408,-15.35752 l 27.96065,23.06818 c -4.39673,5.01599 -8.60859,10.12505 -12.72667,15.38874 z M 289.3207,203.15529 272.01244,171.29451 c 5.6972,-3.40591 11.54905,-6.62625 17.49424,-9.56773 l 17.33813,31.892 c -6.00683,2.94146 -11.85789,6.13061 -17.52411,9.53651 z m -74.00198,-15.2652 -23.06818,-27.99052 c 4.98503,-4.36576 10.09519,-8.60699 15.35888,-12.69408 l 23.06682,27.99051 c -5.29468,4.05616 -10.40343,8.3283 -15.35752,12.69409 z m 47.09476,-34.21335 -17.30826,-31.86078 c 5.75913,-3.34398 11.61153,-6.56433 17.52547,-9.56772 l 17.30825,31.86077 c -5.97583,3.00341 -11.7973,6.19277 -17.52546,9.56773 z M 347.14115,-7.5127093 c -0.60141,-0.2701688 -1.21092,-0.5208856 -1.81771,-0.7778485 h 2.45574 l 0.11946,0.6855372 c -0.25198,0.035123 -0.50602,0.052545 -0.75749,0.092302 z" /></g><g
     aria-label="Rinse"
     transform="scale(0.98942172,1.0106914)"
     id="text902"
     style="font-weight:bold;font-size:176.717px;line-height:1.25;font-family:'Liberation Sans';-inkscape-font-specification:'Liberation Sans, Bold';fill:#ffffff;stroke-width:4.41795"><path
       d="M 134.51878,731.52612 106.30273,685.36226 H 76.447224 v 46.16386 H 50.992383 V 609.9469 h 60.746467 q 21.74447,0 33.56587,9.40535 11.82141,9.31906 11.82141,26.83544 0,12.77057 -7.24816,22.08963 -7.24816,9.23277 -19.58729,12.16655 l 32.87558,51.08225 z m -3.02007,-84.30298 q 0,-17.51638 -22.43478,-17.51638 H 76.447224 v 35.89564 h 33.307016 q 10.69966,0 16.22206,-4.83211 5.52241,-4.8321 5.52241,-13.54715 z"
       id="path1073" /><path
       d="m 179.12946,621.33686 v -17.86153 h 24.24682 v 17.86153 z m 0,110.18926 v -93.36318 h 24.24682 v 93.36318 z"
       id="path1070" /><path
       d="m 288.71471,731.52612 v -52.37657 q 0,-24.59196 -16.65351,-24.59196 -8.80133,0 -14.23745,7.59331 -5.34983,7.50702 -5.34983,19.32842 v 50.0468 H 228.2271 v -72.48158 q 0,-7.50702 -0.25886,-12.25284 -0.17257,-4.8321 -0.43144,-8.62876 h 23.12508 q 0.25886,1.63947 0.6903,8.80134 0.43144,7.07558 0.43144,9.7505 h 0.34515 q 4.91839,-10.69966 12.33912,-15.53177 7.42074,-4.8321 17.68896,-4.8321 14.84147,0 22.77993,9.14648 7.93845,9.14649 7.93845,26.74916 v 59.27957 z"
       id="path1067" /><path
       d="m 414.86718,704.25924 q 0,13.54716 -11.1311,21.31304 -11.04482,7.67959 -30.6321,7.67959 -19.24213,0 -29.51036,-6.04013 -10.18193,-6.12642 -13.54715,-18.98327 l 21.31304,-3.19264 q 1.81204,6.64415 6.2127,9.40535 4.48696,2.7612 15.53177,2.7612 10.18194,0 14.84147,-2.58863 4.65953,-2.58862 4.65953,-8.11103 0,-4.48695 -3.79666,-7.07558 -3.71036,-2.67492 -12.68427,-4.48696 -20.53645,-4.05551 -27.69832,-7.50702 -7.16187,-3.53779 -10.95853,-9.0602 -3.71036,-5.60869 -3.71036,-13.71972 0,-13.37458 10.26822,-20.79531 10.35451,-7.50702 29.2515,-7.50702 16.6535,0 26.74915,6.47157 10.18194,6.47156 12.68428,18.7244 l -21.48561,2.24348 q -1.03546,-5.69498 -5.09097,-8.45618 -4.05552,-2.84749 -12.85685,-2.84749 -8.62876,0 -12.94314,2.24347 -4.31438,2.15719 -4.31438,7.33445 0,4.05552 3.27892,6.47157 3.36522,2.32976 11.21739,3.88294 10.95853,2.24348 19.41471,4.65953 8.54247,2.32977 13.63344,5.60869 5.17726,3.27893 8.19732,8.45619 3.10636,5.09097 3.10636,13.11571 z"
       id="path1064" /><path
       d="m 472.67985,733.25187 q -21.05417,0 -32.35785,-12.42541 -11.30367,-12.5117 -11.30367,-36.41336 0,-23.12508 11.47625,-35.55049 11.47625,-12.42542 32.53042,-12.42542 20.10501,0 30.71838,13.37458 10.61338,13.28829 10.61338,39.00199 v 0.6903 h -59.88359 q 0,13.63344 5.00468,20.62274 5.09097,6.90301 14.41003,6.90301 12.85685,0 16.22206,-11.1311 l 22.86622,1.98461 q -9.92308,25.36855 -40.29631,25.36855 z m 0,-81.54177 q -8.54247,0 -13.202,5.95384 -4.57325,5.95385 -4.83211,16.65351 h 36.24079 q -0.6903,-11.30368 -5.43612,-16.91237 -4.74581,-5.69498 -12.77056,-5.69498 z"
       id="path1061" /></g></svg>
