<?xml version="1.0" encoding="UTF-8" standalone="no"?>
<!-- Created with Inkscape (http://www.inkscape.org/) -->

<svg
   version="1.1"
   id="svg2"
   width="559.37012"
   height="793.70081"
   viewBox="0 0 559.37012 793.70081"
   sodipodi:docname="rinse.svg"
   inkscape:export-filename="rinse.png"
   inkscape:export-xdpi="10.983783"
   inkscape:export-ydpi="10.983783"
   inkscape:version="1.2.1 (9c6d41e410, 2022-07-14)"
   xmlns:inkscape="http://www.inkscape.org/namespaces/inkscape"
   xmlns:sodipodi="http://sodipodi.sourceforge.net/DTD/sodipodi-0.dtd"
   xmlns="http://www.w3.org/2000/svg"
   xmlns:svg="http://www.w3.org/2000/svg">
  <defs
     id="defs6">
    <clipPath
       clipPathUnits="userSpaceOnUse"
       id="clipPath6806">
      <path
         d="m 53.04,326.7756 h 11.449 v 11.84601 H 53.04 Z"
         id="path6804" />
    </clipPath>
  </defs>
  <sodipodi:namedview
     id="namedview4"
     pagecolor="#000000"
     bordercolor="#cccccc"
     borderopacity="1"
     inkscape:showpageshadow="0"
     inkscape:pageopacity="0"
     inkscape:pagecheckerboard="0"
     inkscape:deskcolor="#d1d1d1"
     showgrid="false"
     inkscape:zoom="0.84100809"
     inkscape:cx="199.76027"
     inkscape:cy="450.05512"
     inkscape:window-width="1920"
     inkscape:window-height="1002"
     inkscape:window-x="0"
     inkscape:window-y="0"
     inkscape:window-maximized="1"
     inkscape:current-layer="g8" />
  <g
     id="g8"
     inkscape:groupmode="layer"
     inkscape:label="43033251 co e_cso e 5d_5t itdeenesfr"
     transform="matrix(1.3333333,0,0,-1.3333333,0,793.7008)">
    <g
       id="g6800"
       transform="matrix(33.411161,0,0,33.411161,-1753.6261,-10818.209)"
       style="fill:#ffffff">
      <g
         id="g6802"
         clip-path="url(#clipPath6806)"
         style="fill:#ffffff">
        <path
           d="m 60.373,338.0626 1.03,0.559 c 0.091,-0.197 0.193,-0.386 0.309,-0.566 l -1.032,-0.561 c -0.112,0.183 -0.216,0.372 -0.307,0.568 z m -1.6,-0.87 v 0 l 1.031,0.559 c 0.092,-0.193 0.195,-0.382 0.307,-0.564 l -1.029,-0.56 c -0.112,0.184 -0.215,0.372 -0.309,0.565 z m -1.6,-0.868 v 0 l 1.031,0.56 c 0.096,-0.194 0.198,-0.382 0.309,-0.565 l -1.031,-0.561 c -0.109,0.186 -0.212,0.375 -0.309,0.566 z m -1.598,-0.867 v 0 l 1.031,0.558 c 0.096,-0.192 0.199,-0.38 0.308,-0.565 l -1.03,-0.559 c -0.108,0.184 -0.211,0.373 -0.309,0.566 z m 5.34,1.693 v 0 l 0.905,0.746 c 0.125,-0.176 0.262,-0.342 0.41,-0.497 l -0.905,-0.745 c -0.146,0.155 -0.283,0.322 -0.41,0.496 z m -1.404,-1.157 v 0 l 0.905,0.745 c 0.127,-0.172 0.265,-0.339 0.41,-0.498 l -0.905,-0.745 c -0.143,0.16 -0.28,0.326 -0.41,0.498 z m -1.403,-1.158 v 0 l 0.904,0.745 c 0.13,-0.171 0.267,-0.336 0.41,-0.496 l -0.903,-0.745 c -0.143,0.16 -0.281,0.326 -0.411,0.496 z m -1.402,-1.157 v 0 l 0.902,0.746 c 0.133,-0.17 0.269,-0.335 0.411,-0.497 l -0.903,-0.745 c -0.142,0.161 -0.279,0.328 -0.41,0.496 z m 4.915,2.68 v 0 l 0.746,0.906 c 0.156,-0.149 0.321,-0.287 0.496,-0.411 l -0.746,-0.905 c -0.174,0.127 -0.339,0.264 -0.496,0.41 z m -1.159,-1.404 v 0 l 0.747,0.904 c 0.159,-0.145 0.324,-0.282 0.497,-0.411 l -0.746,-0.903 c -0.172,0.13 -0.337,0.266 -0.498,0.41 z m -1.156,-1.403 v 0 l 0.745,0.904 c 0.16,-0.144 0.325,-0.28 0.496,-0.411 l -0.743,-0.904 c -0.171,0.131 -0.337,0.267 -0.498,0.411 z m -1.155,-1.404 v 0 l 0.745,0.904 c 0.16,-0.141 0.325,-0.279 0.496,-0.41 l -0.745,-0.904 c -0.17,0.132 -0.335,0.269 -0.496,0.41 z m 4.312,3.566 v 0 l 0.56,1.032 c 0.18,-0.116 0.369,-0.219 0.566,-0.309 l -0.56,-1.031 c -0.196,0.092 -0.385,0.194 -0.566,0.308 z m -0.868,-1.6 v 0 l 0.559,1.031 c 0.183,-0.112 0.372,-0.215 0.566,-0.309 l -0.559,-1.03 c -0.195,0.095 -0.383,0.197 -0.566,0.308 z m -0.868,-1.598 v 0 l 0.559,1.029 c 0.183,-0.11 0.372,-0.213 0.566,-0.308 l -0.56,-1.03 c -0.19201,0.095 -0.381,0.199 -0.565,0.309 z m -0.869,-1.598 v 0 l 0.559,1.029 c 0.185,-0.109 0.373,-0.212 0.566,-0.309 l -0.559,-1.029 c -0.191,0.097 -0.38,0.201 -0.566,0.309 z m 2.572,-3.339 v 0 l 1.193,6.736 c 0.19,0.704 0.978,0.416 0.852,-0.159 l -1.301,-7.44 h -8.817 l -1.303,7.44 c -0.126,0.576 0.661,0.863 0.85,0.161 l 1.195,-6.737 7.331,-0.001"
           style="fill:#ffffff;fill-opacity:1;fill-rule:evenodd;stroke:none"
           id="path6808" />
      </g>
    </g>
  </g>
</svg>
