<?xml version="1.0" encoding="UTF-8" standalone="no"?>
<!-- Created with Inkscape (http://www.inkscape.org/) -->

<svg
   version="1.1"
   id="svg2"
   width="559.37012"
   height="793.70081"
   viewBox="0 0 559.37012 793.70081"
   sodipodi:docname="special.svg"
   inkscape:export-filename="special.png"
   inkscape:export-xdpi="10.983783"
   inkscape:export-ydpi="10.983783"
   inkscape:version="1.2.1 (9c6d41e410, 2022-07-14)"
   xmlns:inkscape="http://www.inkscape.org/namespaces/inkscape"
   xmlns:sodipodi="http://sodipodi.sourceforge.net/DTD/sodipodi-0.dtd"
   xmlns="http://www.w3.org/2000/svg"
   xmlns:svg="http://www.w3.org/2000/svg">
  <defs
     id="defs6">
    <clipPath
       clipPathUnits="userSpaceOnUse"
       id="clipPath9772">
      <path
         d="M 48.54034,89.41559 H 68.90907 V 106.7726 H 48.54034 Z"
         id="path9770" />
    </clipPath>
  </defs>
  <sodipodi:namedview
     id="namedview4"
     pagecolor="#000000"
     bordercolor="#cccccc"
     borderopacity="1"
     inkscape:showpageshadow="0"
     inkscape:pageopacity="0"
     inkscape:pagecheckerboard="0"
     inkscape:deskcolor="#d1d1d1"
     showgrid="false"
     inkscape:zoom="1.1893651"
     inkscape:cx="151.34125"
     inkscape:cy="455.28492"
     inkscape:window-width="1920"
     inkscape:window-height="1002"
     inkscape:window-x="0"
     inkscape:window-y="0"
     inkscape:window-maximized="1"
     inkscape:current-layer="g8" />
  <g
     id="g8"
     inkscape:groupmode="layer"
     inkscape:label="43033251 co e_cso e 5d_5t itdeenesfr"
     transform="matrix(1.3333333,0,0,-1.3333333,0,793.7008)">
    <g
       id="g9766"
       transform="matrix(20.511577,0,0,20.511577,-994.77251,-1714.4268)"
       style="fill:#ffffff">
      <g
         id="g9768"
         clip-path="url(#clipPath9772)"
         style="fill:#ffffff">
        <path
           d="m 53.59506,90.96059 0.02313,3.458 -2.14318,-3.458 z m 0.54107,-1.605 h -0.55716 v 1.106 h -2.69532 v 0.499 l 2.60681,4.119 h 0.64567 v -4.119 h 0.62455 v -0.499 h -0.62455 z m 3.23036,2.488 c 0.39424,0 0.72612,0.137 0.99264,0.409 0.26752,0.272 0.40128,0.607 0.40128,1.006 0,0.403 -0.13678,0.743 -0.40933,1.02 -0.27255,0.276 -0.60343,0.414 -0.99264,0.414 -0.37614,0 -0.69193,-0.134 -0.94638,-0.4 -0.25444,-0.268 -0.38116,-0.61 -0.38116,-1.026 0,-0.414 0.12571,-0.755 0.37714,-1.022 0.25143,-0.267 0.57024,-0.401 0.95845,-0.401 z m -0.13477,-2.488 H 56.5247 l 1.34163,2.075 c -0.1227,-0.029 -0.23534,-0.051 -0.33893,-0.065 -0.10258,-0.015 -0.19611,-0.021 -0.27959,-0.021 -0.52196,0 -0.95341,0.18 -1.29536,0.541 -0.34194,0.363 -0.51191,0.818 -0.51191,1.365 0,0.563 0.18506,1.029 0.55415,1.396 0.3681,0.37 0.83776,0.554 1.407,0.554 0.55918,0 1.02281,-0.181 1.3919,-0.545 0.37111,-0.363 0.55617,-0.809 0.55617,-1.338 0,-0.459 -0.23735,-1.052 -0.71205,-1.777 -0.04425,-0.071 -0.07844,-0.124 -0.10258,-0.161 z m 3.10766,4.041 h -0.55817 l 0.60443,1.683 h 0.56924 l -0.6155,-1.683"
           style="fill:#ffffff;fill-opacity:1;fill-rule:nonzero;stroke:none"
           id="path9774" />
        <path
           d="m 60.78994,102.0506 c 0.19008,0.101 0.32987,0.216 0.37312,0.332 0.11867,0.315 -0.44453,0.629 -1.14048,0.629 -0.68992,0 -1.50757,-0.314 -1.62725,-0.629 -0.04224,-0.116 0.007,-0.231 0.11968,-0.332 0.39424,0.079 0.78848,0.123 1.18272,0.123 0.39525,0 0.76032,-0.044 1.09221,-0.123 z m -1.50656,-1.199 c 1.95008,0 2.98496,-1.57901 2.30107,-3.50701 -0.16091,-0.462 -0.41435,-0.904 -0.71808,-1.309 l 0.88101,0.001 c 0.27356,0.411 0.49883,0.85 0.66075,1.308 0.85989,2.42 -0.39424,4.32101 -2.83712,4.32101 -2.44891,0.001 -5.04064,-1.90201 -5.89248,-4.32101 -0.16896,-0.458 -0.25344,-0.897 -0.26752,-1.309 l 0.88,0.001 c -0.02011,0.404 0.04224,0.846 0.2112,1.308 0.67685,1.929 2.83008,3.50701 4.78117,3.50701 z m 1.31648,-1.81701 c -0.86693,-0.489 -1.54981,-1.071 -2.4288,-1.569 -0.19813,0.335 -0.32485,0.744 -0.55716,1.111 -0.35804,0.209 -0.90817,0.006 -0.57729,-0.521 0.31781,-0.447 0.40933,-0.981 0.66176,-1.371 0.09957,-0.066 0.19008,-0.082 0.38721,0.047 0.21924,0.208 0.61951,0.518 1.16863,0.953 0.69696,0.547 1.08417,0.773 1.48544,1.098 0.42341,0.337 0.33088,0.529 -0.13979,0.252 z m -11.91973,-1.065 c -0.15488,0 -0.23936,0.174 -0.18203,0.39 0.05632,0.215 0.22427,0.39 0.38016,0.39 h 4.55387 c 0.15589,0 0.23936,-0.175 0.19008,-0.39 -0.05531,-0.216 -0.23232,-0.39 -0.3872,-0.39 z m 0.98661,1.754 c -0.15488,0 -0.24037,0.172 -0.18405,0.38801 0.05029,0.216 0.22528,0.389 0.38016,0.389 h 4.55589 c 0.15488,0 0.23936,-0.173 0.18203,-0.389 -0.05632,-0.21601 -0.22528,-0.38801 -0.3872,-0.38801 z m 1.74592,1.77201 c -0.14784,0 -0.22629,0.174 -0.17701,0.388 0.05733,0.216 0.2112,0.39 0.35904,0.39 l 4.26021,0.001 c 0.14683,0 0.22427,-0.175 0.17499,-0.391 -0.04827,-0.214 -0.21119,-0.388 -0.35904,-0.388 h -4.25819"
           style="fill:#ffffff;fill-opacity:1;fill-rule:evenodd;stroke:none"
           id="path9776" />
        <path
           d="m 65.13663,103.0926 1.74592,-1.06 1.21089,1.996 -3.07648,1.844 z m -3.94944,1.864 c 0.67585,0 1.23905,0.475 1.38689,1.132 h -2.83612 c 0.14684,-0.655 0.76635,-1.13 1.44923,-1.133 z m -3.66079,-1.752 c -0.19008,0.006 -0.33792,0.166 -0.33089,0.357 l 0.08448,2.112 -3.20319,-1.929 c -0.06336,-0.037 -0.13376,-0.059 -0.21221,-0.059 -0.22427,0.001 -0.40731,0.181 -0.40731,0.403 0,0.146 0.07643,0.272 0.19712,0.344 l 3.80864,2.283 c 0.06336,0.035 0.12672,0.057 0.19712,0.057 h 7.09632 l 0.176,-0.049 3.80864,-2.282 c 0.16192,-0.098 0.21824,-0.309 0.11867,-0.473 l -1.56891,-2.583 c -0.09857,-0.161 -0.31077,-0.213 -0.47168,-0.116 l -1.62524,0.984 0.2806,-6.65901 c 0,-0.182 -0.13376,-0.341 -0.31681,-0.341 h -1.63327 c -0.19008,0 -0.33792,0.148 -0.33792,0.334 0,0.187 0.14683,0.338 0.33792,0.338 l 1.232,-0.003 -0.42945,10.16601 h -1.05499 c -0.16292,-1.041 -1.03588,-1.815 -2.08485,-1.815 -1.05599,0 -1.98527,0.775 -2.14719,1.815 h -1.056 l -0.09856,-2.556 c -0.007,-0.187 -0.16896,-0.335 -0.35904,-0.328"
           style="fill:#ffffff;fill-opacity:1;fill-rule:evenodd;stroke:none"
           id="path9778" />
      </g>
    </g>
  </g>
</svg>
