<?xml version="1.0" encoding="UTF-8" standalone="no"?>
<!-- Created with Inkscape (http://www.inkscape.org/) -->

<svg
   version="1.1"
   id="svg2"
   width="559.37012"
   height="793.70081"
   viewBox="0 0 559.37012 793.70081"
   sodipodi:docname="spin-off.svg"
   inkscape:version="1.2.1 (9c6d41e410, 2022-07-14)"
   xml:space="preserve"
   inkscape:export-filename="spin-off.png"
   inkscape:export-xdpi="17.848648"
   inkscape:export-ydpi="17.848648"
   xmlns:inkscape="http://www.inkscape.org/namespaces/inkscape"
   xmlns:sodipodi="http://sodipodi.sourceforge.net/DTD/sodipodi-0.dtd"
   xmlns="http://www.w3.org/2000/svg"
   xmlns:svg="http://www.w3.org/2000/svg"><defs
     id="defs6"><clipPath
       clipPathUnits="userSpaceOnUse"
       id="clipPath5174"><path
         d="m 52.37965,441.0156 h 13.75296 v 17.798 H 52.37965 Z"
         id="path5172" /></clipPath><clipPath
       clipPathUnits="userSpaceOnUse"
       id="clipPath7096"><path
         d="m 43.44,302.2356 h 30.69375 v 13.11362 H 43.44 Z"
         id="path7094" /></clipPath><clipPath
       clipPathUnits="userSpaceOnUse"
       id="clipPath7106"><path
         d="m 43.44,302.2356 h 31.2 v 13.92001 h -31.2 z"
         id="path7104" /></clipPath><clipPath
       clipPathUnits="userSpaceOnUse"
       id="clipPath5174-7"><path
         d="m 52.37965,441.0156 h 13.75296 v 17.798 H 52.37965 Z"
         id="path5172-5" /></clipPath><clipPath
       clipPathUnits="userSpaceOnUse"
       id="clipPath2046"><path
         d="m 279.36,134.7156 h 13.92001 v 12 H 279.36 Z"
         id="path2044" /></clipPath><clipPath
       clipPathUnits="userSpaceOnUse"
       id="clipPath2359"><g
         id="g2363"><path
           d="M -396.54927,129.98469 H 11.929044 V 460.64877 H -396.54927 Z"
           id="path2361"
           style="stroke-width:29.6347" /></g></clipPath></defs><sodipodi:namedview
     id="namedview4"
     pagecolor="#000000"
     bordercolor="#cccccc"
     borderopacity="1"
     inkscape:showpageshadow="0"
     inkscape:pageopacity="0"
     inkscape:pagecheckerboard="false"
     inkscape:deskcolor="#d1d1d1"
     showgrid="false"
     inkscape:zoom="0.84100809"
     inkscape:cx="247.32223"
     inkscape:cy="423.89604"
     inkscape:window-width="1920"
     inkscape:window-height="1002"
     inkscape:window-x="0"
     inkscape:window-y="0"
     inkscape:window-maximized="1"
     inkscape:current-layer="g8"
     showborder="true"
     borderlayer="true" /><g
     id="g8"
     inkscape:groupmode="layer"
     inkscape:label="43033251 co e_cso e 5d_5t itdeenesfr"
     transform="matrix(1.3333333,0,0,-1.3333333,0,793.7008)"><g
       id="g1164"
       style="opacity:0.5;fill:#ffffff"><g
         id="g5168"
         transform="matrix(30.309522,0,0,30.309522,-1584.9202,-13339.059)"
         style="fill:#ffffff"><g
           id="g5170"
           clip-path="url(#clipPath5174)"
           style="fill:#ffffff"><path
             id="path5176"
             style="fill:#ffffff;fill-opacity:1;fill-rule:evenodd;stroke:none"
             d="m 62.330166,458.81388 c -0.171466,-0.002 -0.326091,-0.0823 -0.493879,-0.2273 -0.44841,-0.3759 -0.912769,-0.73997 -1.406919,-1.04797 -0.81929,-0.509 -1.680338,-0.5139 -2.502598,-0.006 -0.5051,0.3109 -0.974398,0.68399 -1.434758,1.06199 -0.25155,0.208 -0.465307,0.28401 -0.772547,0.13701 -0.5379,-0.253 -1.091753,-0.47501 -1.633633,-0.72001 -0.39573,-0.179 -0.634325,-0.493 -0.720835,-0.92 -0.33705,-1.682 -0.669184,-3.36601 -1.007234,-5.05101 -0.12826,-0.635 0.06465,-0.96 0.688066,-1.163 0.3132,-0.101 0.618448,-0.22299 0.938608,-0.29999 0.34203,-0.083 0.460356,-0.28401 0.458356,-0.62301 -0.008,-1.324 -9.9e-4,-2.653 0,-3.981 -9.9e-4,-0.742 0.240626,-0.982 0.975386,-0.985 l 1.274691,0.004 h 0.186938 l 0.277363,9.7e-4 v 2.4e-4 l 4.8e-5,-2.4e-4 c 0,0.0557 -0.0016,0.11015 -0.0044,0.16321 -9.53e-4,0.0177 -0.0021,0.0352 -0.0033,0.0526 -0.01359,0.19111 -0.04373,0.36304 -0.07883,0.50915 -0.0032,0.0133 -0.0064,0.0263 -0.0097,0.0392 -0.0261,0.10282 -0.05425,0.19165 -0.07999,0.26398 -0.0032,0.009 -0.0064,0.0178 -0.0095,0.0263 -0.02192,0.0596 -0.04156,0.1064 -0.05592,0.13856 h -0.03282 l -0.877953,-0.002 c -0.61944,0.002 -0.61946,0.004 -0.57372,0.622 0,0 -0.01789,7.11799 -0.02189,7.41399 -0.005,0.167 -0.04671,0.31802 -0.25054,0.32202 -0.21973,0.003 -0.267474,-0.15001 -0.265474,-0.33101 0.002,-0.277 0.002,-0.55201 0,-0.87501 l -0.03876,-1.15101 -0.002,-1.05001 c -0.333071,0.106 -0.66614,0.21501 -0.995249,0.31501 -0.38479,0.117 -0.297294,0.28202 -0.240633,0.64902 0,0 0.174027,1.00997 0.271467,1.58197 0.09843,0.573 0.362881,1.91002 0.573671,2.83902 0.03778,0.167 0.220733,0.34599 0.379822,0.42699 0.413611,0.221 0.857081,0.38403 1.283631,0.58503 0.15809,0.079 0.242604,0.032 0.374844,-0.063 0.464321,-0.352 0.93065,-0.71999 1.436739,-1.00399 0.813321,-0.469 1.679362,-0.46425 2.496653,0.008 0.49514,0.282 0.949536,0.64096 1.405905,0.99196 0.14119,0.107 0.233668,0.14995 0.398718,0.067 0.423559,-0.199 0.870985,-0.35602 1.280635,-0.57802 0.166039,-0.09 0.316198,-0.284 0.375858,-0.463 0.11136,-0.328 0.670137,-3.26499 0.670137,-3.26499 0.03878,-0.187 0.110357,-0.63702 0.180946,-1.04402 0.0696,-0.41 0.151131,-0.57697 -0.03378,-0.64297 -0.39273,-0.142 -0.793459,-0.26003 -1.193158,-0.38703 0,0 -0.269458,-0.12199 -0.107388,1.07601 0.03082,0.628 0.06963,1.24802 0.05471,1.87601 -0.003,0.198 0.04376,0.463 -0.248559,0.46 -0.304241,0.001 -0.265489,-0.27201 -0.266489,-0.48001 l -0.0099,-3.48697 c 0.09545,-0.033 0.192875,-0.059 0.290315,-0.08 0.32016,-0.068 0.625439,-0.081 0.85809,-0.052 0.08352,0.058 0.21079,0.10301 0.40766,0.16601 l 0.08351,0.027 c 0.05071,0.025 0.105377,0.041 0.160067,0.051 0.19985,0.064 0.400732,0.12499 0.602572,0.18999 0.591599,0.194 0.787442,0.50903 0.667141,1.12303 -0.21676,1.096 -0.443446,2.191 -0.668156,3.288 -0.11931,0.597 -0.238633,1.19498 -0.358943,1.78998 -0.08352,0.426 -0.32413,0.73998 -0.71489,0.92198 -0.53392,0.244 -1.076829,0.45603 -1.60478,0.70803 -0.121552,0.0577 -0.230491,0.0845 -0.333377,0.0833 z" /></g></g><g
         id="g7102"
         clip-path="url(#clipPath7106)"
         style="fill:#ffffff"
         transform="matrix(22.158443,0,0,22.158443,-1297.4422,-6618.3738)"><path
           d="m 70.67256,314.4116 c 1.51069,-0.868 2.44669,-2.4748 2.44669,-4.1919 0,-2.3783 -1.94749,-4.3112 -4.34384,-4.3112 -2.09645,0 -3.80339,1.6952 -3.80339,3.7763 0,1.7887 1.46439,3.2404 3.26594,3.2404 1.50263,0 2.72547,-1.214 2.72547,-2.7055 0,-1.1981 -0.98028,-2.1705 -2.18802,-2.1705 -0.90984,0 -1.64857,0.7348 -1.64857,1.6356 0,0.6045 0.50221,1.0937 1.10911,1.0997 0.27677,0 0.5002,0.2247 0.5002,0.5041 0,0.2794 -0.22343,0.5051 -0.5002,0.5051 -1.16145,-0.0139 -2.12261,-0.9546 -2.12261,-2.1089 0,-1.4567 1.19365,-2.6418 2.66207,-2.6418 1.76531,0 3.20253,1.4248 3.20253,3.1767 0,2.0453 -1.67776,3.7117 -3.73998,3.7117 -2.36114,0 -4.28044,-1.9041 -4.28044,-4.2466 0,-2.6359 2.16186,-4.7805 4.81789,-4.7805 2.95494,0 5.35834,2.3842 5.35834,5.3154 0,2.095 -1.14937,4.0458 -2.99721,5.0878 -0.06241,0.0268 -0.12983,0.0417 -0.20028,0.0417 -0.27678,0 -0.50122,-0.2267 -0.50122,-0.51 0,-0.171 0.10568,-0.3371 0.23752,-0.4276"
           style="fill:#ffffff;fill-opacity:1;fill-rule:nonzero;stroke:none"
           id="path3458" /></g><text
         xml:space="preserve"
         style="font-style:normal;font-variant:normal;font-weight:bold;font-stretch:normal;font-size:30px;line-height:1.25;font-family:'Liberation Sans';-inkscape-font-specification:'Liberation Sans, Bold';font-variant-ligatures:normal;font-variant-caps:normal;font-variant-numeric:normal;font-variant-east-asian:normal;white-space:pre;inline-size:82.4477;display:inline;fill:#ffffff;fill-opacity:1;stroke:none;stroke-width:0.75"
         x="35.671478"
         y="-110.58942"
         id="text3753"
         transform="matrix(4.4651655,0,0,-4.4651655,-95.941729,-453.03432)"><tspan
           x="35.671478"
           y="-110.58942"
           id="tspan175">Spin</tspan></text></g></g></svg>
