<?xml version="1.0" encoding="UTF-8" standalone="no"?>
<!-- Created with Inkscape (http://www.inkscape.org/) -->

<svg
   version="1.1"
   id="svg2"
   width="559.37012"
   height="793.70081"
   viewBox="0 0 559.37012 793.70081"
   sodipodi:docname="sport-plus.svg"
   inkscape:export-filename="sport-plus.png"
   inkscape:export-xdpi="10.983783"
   inkscape:export-ydpi="10.983783"
   inkscape:version="1.2.1 (9c6d41e410, 2022-07-14)"
   xmlns:inkscape="http://www.inkscape.org/namespaces/inkscape"
   xmlns:sodipodi="http://sodipodi.sourceforge.net/DTD/sodipodi-0.dtd"
   xmlns="http://www.w3.org/2000/svg"
   xmlns:svg="http://www.w3.org/2000/svg">
  <defs
     id="defs6">
    <clipPath
       clipPathUnits="userSpaceOnUse"
       id="clipPath7680">
      <path
         d="M 48.29956,253.5756 H 69.1379 v 17.79802 H 48.29956 Z"
         id="path7678" />
    </clipPath>
  </defs>
  <sodipodi:namedview
     id="namedview4"
     pagecolor="#000000"
     bordercolor="#cccccc"
     borderopacity="1"
     inkscape:showpageshadow="0"
     inkscape:pageopacity="0"
     inkscape:pagecheckerboard="0"
     inkscape:deskcolor="#d1d1d1"
     showgrid="false"
     inkscape:zoom="1.1893651"
     inkscape:cx="264.0064"
     inkscape:cy="398.11156"
     inkscape:window-width="1920"
     inkscape:window-height="1002"
     inkscape:window-x="0"
     inkscape:window-y="0"
     inkscape:window-maximized="1"
     inkscape:current-layer="g8" />
  <g
     id="g8"
     inkscape:groupmode="layer"
     inkscape:label="43033251 co e_cso e 5d_5t itdeenesfr"
     transform="matrix(1.3333333,0,0,-1.3333333,0,793.7008)">
    <g
       id="g7674"
       transform="matrix(20.132487,0,0,20.132487,-972.39025,-4986.6289)"
       style="fill:#ffffff">
      <g
         id="g7676"
         clip-path="url(#clipPath7680)"
         style="fill:#ffffff">
        <path
           d="m 53.99881,261.4086 -0.004,0.013 c -0.08042,0.306 -0.23627,0.457 -0.56387,0.447 -0.30477,-0.009 -0.60954,0.025 -0.9153,0.038 -0.61151,0.026 -0.86367,0.274 -0.90338,0.874 -0.11118,1.602 -0.22336,3.2 -0.33355,4.797 -0.02681,0.405 0.11118,0.75 0.42191,1.007 0.42886,0.355 0.8726,0.691 1.29253,1.0539 0.24023,0.2081 0.45169,0.1921 0.72766,0.0681 0.5053,-0.227 1.01954,-0.445 1.54965,-0.6 0.86169,-0.253 1.63602,-0.036 2.24654,0.627 0.37128,0.399 0.69789,0.843 1.00663,1.293 0.18465,0.273 0.38121,0.392 0.71079,0.332 0.53508,-0.093 1.07513,-0.151 1.61418,-0.237 0.39709,-0.067 0.68994,-0.291 0.86863,-0.653 0.25712,-0.506 0.50729,-1.016 0.76142,-1.522 0.47056,-0.932 0.94409,-1.86 1.40571,-2.794 0.07346,-0.149 0.11814,-0.283 0.13401,-0.404 l -0.08537,-0.05 c -0.16082,-0.093 -0.29683,-0.189 -0.43084,-0.284 l 0.002,-0.001 -0.1638,-0.111 -0.02382,-0.019 c -0.004,-0.003 -1.05428,-0.787 -1.55461,-2.239 l -1.13171,4.2059 c -0.05162,0.1861 -0.1509,0.4241 0.1221,0.4981 0.26307,0.076 0.28492,-0.176 0.33555,-0.352 0.05658,-0.19 0.10423,-0.3831 0.17174,-0.618 l 0.23924,-1.0841 c 0.14693,-1.1189 0.36135,-0.9409 0.36135,-0.9409 0.32661,0.212 0.65818,0.417 0.97586,0.643 0.1499,0.1039 0.03474,0.236 -0.12707,0.586 -0.1638,0.352 -0.33852,0.736 -0.41893,0.896 0,0 -1.22007,2.503 -1.40074,2.772 -0.09828,0.146 -0.28193,0.284 -0.45169,0.323 -0.42191,0.098 -0.86268,0.128 -1.29253,0.204 -0.16777,0.032 -0.24124,-0.029 -0.34249,-0.16 -0.32364,-0.429 -0.64528,-0.865 -1.01954,-1.242 -0.61946,-0.626 -1.39577,-0.847 -2.24256,-0.626 -0.52417,0.128 -1.03344,0.345 -1.53576,0.547 -0.14196,0.052 -0.22932,0.073 -0.35241,-0.037 -0.33455,-0.288 -0.69392,-0.545 -1.00961,-0.844 -0.12409,-0.113 -0.24421,-0.321 -0.23924,-0.479 0.03871,-0.889 0.12905,-2.159 0.18067,-2.6981 0.05262,-0.5409 0.14295,-1.4909 0.14295,-1.4909 0.04071,-0.345 0.002,-0.517 0.37526,-0.526 0.32065,-0.008 0.64725,-0.023 0.97188,-0.034 l -0.25315,0.944 -0.24818,1.047 c -0.07744,0.289 -0.14593,0.537 -0.21443,0.786 -0.04567,0.164 -0.0407,0.312 0.15685,0.364 0.18564,0.047 0.26009,-0.079 0.30576,-0.2281 l 1.11682,-4.056 c -0.11317,0.0121 -0.22734,0.0181 -0.34448,0.0181 -0.20549,0 -0.40404,-0.0181 -0.59464,-0.054 z m 4.68468,-2.335 3.02385,0.84 c 0.0089,-0.064 0.01687,-0.128 0.02581,-0.192 0.03871,-0.32 0.05956,-0.632 0.04864,-0.933 l -9.9e-4,-0.012 c -0.76937,-0.213 -1.53774,-0.426 -2.3071,-0.641 -1.99439,-0.538 -1.25679,-0.354 -1.05924,0.194 l 0.26903,0.744"
           style="fill:#ffffff;fill-opacity:1;fill-rule:evenodd;stroke:none"
           id="path7682" />
        <path
           d="m 63.78412,264.7266 c 0.18266,0.124 0.36036,0.2609 0.55195,0.372 0.94906,0.558 1.94873,0.729 2.9772,0.27 1.17439,-0.525 1.74025,-1.507 1.81669,-2.764 0.11912,-1.952 -1.06421,-3.675 -2.9077,-4.293 -0.86367,-0.289 -1.68267,-0.663 -2.35376,-1.293 -0.28987,-0.2681 -0.5321,-0.586 -0.81602,-0.903 -0.32958,0.196 -0.68399,0.406 -1.0513,0.624 0.35639,0.631 0.4924,1.31 0.52516,2.016 0.02779,0.705 -0.08438,1.395 -0.23032,2.096 -0.36036,2.498 1.4881,3.875 1.4881,3.875 z m 0.36036,-0.524 v 0 c -1.45335,-1.15 -1.24091,-3.185 -1.24091,-3.185 0.15388,-1.459 1.42655,-2.515 2.95138,-2.162 1.70848,0.397 2.91763,2.232 2.63569,3.993 -0.12608,0.792 -0.49438,1.439 -1.19723,1.842 -1.06023,0.61 -2.27136,0.272 -3.12511,-0.466 z m 0.38418,-5.937 v 0 c -0.54202,0.145 -0.98676,0.41 -1.36996,0.796 -0.01091,-0.032 -0.01687,-0.043 -0.01687,-0.054 0.006,-0.66 -0.07942,-1.305 -0.30477,-1.929 -0.0139,-0.037 0.01191,-0.085 0.01886,-0.128 0.0417,0.017 0.09332,0.027 0.12707,0.058 0.33951,0.302 0.67009,0.615 1.01655,0.909 0.15189,0.129 0.33356,0.2209 0.52912,0.348 z m -2.7558,-1.916 v 0 c -0.37426,-0.655 -0.74753,-1.291 -1.09895,-1.945 -0.15586,-0.294 -0.01192,-0.653 0.28789,-0.81 0.30278,-0.16 0.6552,-0.073 0.83587,0.231 0.36235,0.615 0.71179,1.235 1.0791,1.871 -0.37624,0.224 -0.73363,0.435 -1.10391,0.653"
           style="fill:#ffffff;fill-opacity:1;fill-rule:evenodd;stroke:none"
           id="path7684" />
        <path
           d="m 48.80585,256.3636 v -0.047 c 0,-0.378 0.11615,-0.691 0.34845,-0.941 0.23428,-0.248 0.52118,-0.373 0.86467,-0.373 0.37227,0 0.67803,0.124 0.91926,0.372 0.24123,0.248 0.36135,0.564 0.36135,0.95 0,0.437 -0.12806,0.77 -0.38219,0.997 -0.25514,0.227 -0.6284,0.339 -1.1208,0.339 -0.06849,0 -0.12309,0 -0.16082,-10e-4 -0.03871,-0.001 -0.07048,-0.004 -0.09927,-0.007 v 0.476 c 0.02879,-0.002 0.05956,-0.005 0.09232,-0.006 0.03475,-0.002 0.08538,-0.002 0.15388,-0.002 0.37426,0 0.6542,0.079 0.84381,0.234 0.18862,0.157 0.28194,0.389 0.28194,0.698 0,0.268 -0.08041,0.488 -0.24223,0.661 -0.15983,0.173 -0.36333,0.259 -0.60655,0.259 -0.27896,0 -0.49637,-0.085 -0.6562,-0.253 -0.15883,-0.169 -0.24024,-0.406 -0.24619,-0.71 h -0.5192 c 0.02383,0.445 0.1648,0.799 0.42489,1.061 0.26108,0.261 0.60258,0.393 1.02251,0.393 0.38815,0 0.71873,-0.139 0.99074,-0.419 0.27101,-0.279 0.40702,-0.61 0.40702,-0.992 0,-0.228 -0.04368,-0.4271 -0.13005,-0.596 -0.08835,-0.169 -0.22833,-0.323 -0.41992,-0.466 0.30873,-0.165 0.54203,-0.38 0.69788,-0.65 0.15586,-0.269 0.23429,-0.5901 0.23429,-0.961 0,-0.528 -0.17174,-0.97 -0.51721,-1.329 -0.34448,-0.359 -0.77731,-0.538 -1.29651,-0.538 -0.55592,0 -0.99371,0.165 -1.31635,0.494 -0.32264,0.331 -0.48743,0.783 -0.49537,1.357 z m 5.75286,0.75 c 0.38915,0 0.71675,0.136 0.97982,0.409 0.26406,0.272 0.39511,0.608 0.39511,1.006 0,0.4029 -0.13402,0.744 -0.40206,1.02 -0.27002,0.277 -0.59663,0.414 -0.98081,0.414 -0.37128,0 -0.68399,-0.134 -0.93416,-0.401 -0.25116,-0.267 -0.37625,-0.609 -0.37625,-1.025 0,-0.414 0.1231,-0.755 0.37228,-1.022 0.24818,-0.267 0.56387,-0.401 0.94607,-0.401 z m -0.13303,-2.487 H 53.7268 l 1.32629,2.074 c -0.12211,-0.029 -0.2333,-0.05 -0.33654,-0.064 -0.10126,-0.016 -0.19259,-0.022 -0.27498,-0.022 -0.51622,0 -0.9421,0.181 -1.27864,0.542 -0.33752,0.362 -0.5053,0.817 -0.5053,1.364 0,0.564 0.18267,1.03 0.546,1.397 0.36334,0.369 0.82794,0.553 1.38982,0.553 0.55097,0 1.0096,-0.182 1.37394,-0.545 0.36631,-0.363 0.54898,-0.809 0.54898,-1.338 0,-0.459 -0.23429,-1.052 -0.70286,-1.777 -0.04467,-0.07 -0.07743,-0.124 -0.10225,-0.161 z m 3.06653,4.041 h -0.54897 l 0.59564,1.682 h 0.56188 l -0.60855,-1.682"
           style="fill:#ffffff;fill-opacity:1;fill-rule:nonzero;stroke:none"
           id="path7686" />
      </g>
    </g>
  </g>
</svg>
