<?xml version="1.0" encoding="UTF-8" standalone="no"?>
<!-- Created with Inkscape (http://www.inkscape.org/) -->

<svg
   version="1.1"
   id="svg2"
   width="559.37012"
   height="793.70081"
   viewBox="0 0 559.37012 793.70081"
   sodipodi:docname="synthetic-and-coloured.svg"
   inkscape:export-filename="synthetic-and-coloured.png"
   inkscape:export-xdpi="10.983783"
   inkscape:export-ydpi="10.983783"
   inkscape:version="1.2.1 (9c6d41e410, 2022-07-14)"
   xmlns:inkscape="http://www.inkscape.org/namespaces/inkscape"
   xmlns:sodipodi="http://sodipodi.sourceforge.net/DTD/sodipodi-0.dtd"
   xmlns="http://www.w3.org/2000/svg"
   xmlns:svg="http://www.w3.org/2000/svg">
  <defs
     id="defs6">
    <clipPath
       clipPathUnits="userSpaceOnUse"
       id="clipPath6436">
      <path
         d="m 52.13965,349.2756 h 12.92074 v 13.80963 H 52.13965 Z"
         id="path6434" />
    </clipPath>
  </defs>
  <sodipodi:namedview
     id="namedview4"
     pagecolor="#000000"
     bordercolor="#cccccc"
     borderopacity="1"
     inkscape:showpageshadow="0"
     inkscape:pageopacity="0"
     inkscape:pagecheckerboard="0"
     inkscape:deskcolor="#d1d1d1"
     showgrid="false"
     inkscape:zoom="0.84100809"
     inkscape:cx="254.45653"
     inkscape:cy="436.97558"
     inkscape:window-width="1920"
     inkscape:window-height="1002"
     inkscape:window-x="0"
     inkscape:window-y="0"
     inkscape:window-maximized="1"
     inkscape:current-layer="g8" />
  <g
     id="g8"
     inkscape:groupmode="layer"
     inkscape:label="43033251 co e_cso e 5d_5t itdeenesfr"
     transform="matrix(1.3333333,0,0,-1.3333333,0,793.7008)">
    <g
       id="g6430"
       transform="matrix(32.469328,0,0,32.469328,-1692.9395,-11267.301)"
       style="fill:#ffffff">
      <g
         id="g6432"
         clip-path="url(#clipPath6436)"
         style="fill:#ffffff">
        <path
           d="m 57.27315,361.9259 c -0.005,-0.0836 -0.0099,-0.1452 -0.0099,-0.2098 -0.002,-1.2707 9.9e-4,-2.5404 -0.006,-3.8131 0,-0.1064 -0.0338,-0.2277 -0.08948,-0.3172 -1.17127,-1.8345 -2.3485,-3.6699 -3.52176,-5.5054 -0.23067,-0.3579 -0.47129,-0.7109 -0.6791,-1.0817 -0.30823,-0.5538 -0.06463,-0.9526 0.56177,-0.9526 3.38057,0 6.76214,0 10.14271,0 0.04872,0 0.09943,-0.003 0.14815,10e-4 0.30127,0.0249 0.49515,0.2019 0.45737,0.4982 -0.02883,0.2287 -0.11236,0.4703 -0.23465,0.6642 -1.33831,2.1108 -2.68855,4.2127 -4.02885,6.3226 -0.07954,0.1263 -0.12726,0.2993 -0.12826,0.4514 -0.01193,1.229 -0.008,2.4579 -0.007,3.6868 0,0.0835 0,0.1651 0,0.2556 -0.87994,0 -1.73204,0 -2.60503,0 z m -0.79543,0.007 v 0 c -0.07158,0 -0.13423,-0.002 -0.19686,0 -0.31122,0.0179 -0.55183,0.2546 -0.56178,0.5578 -0.01093,0.2983 0.21875,0.5558 0.52797,0.5896 0.05071,0.006 0.09943,0.005 0.14914,0.005 1.44967,10e-4 2.89835,0.002 4.34602,-0.004 0.13026,-10e-4 0.27244,-0.0248 0.38778,-0.0815 0.22371,-0.1104 0.33408,-0.3828 0.27939,-0.6145 -0.06065,-0.2515 -0.26945,-0.4315 -0.52796,-0.4524 -0.06861,-0.004 -0.13821,-0.007 -0.22173,-0.01 -0.003,-0.0786 -0.0099,-0.1482 -0.0099,-0.2168 0,-1.1871 -0.002,-2.3723 0.006,-3.5575 0,-0.1203 0.03679,-0.2556 0.10042,-0.355 1.31545,-2.0641 2.63486,-4.1263 3.95627,-6.1854 0.26945,-0.4176 0.41859,-0.8581 0.31618,-1.3522 -0.11533,-0.5598 -0.56475,-0.9337 -1.14343,-0.9755 -0.06264,-0.004 -0.12627,-0.004 -0.1909,-0.004 -3.42333,0 -6.84566,-0.002 -10.26799,0 -0.69799,0 -1.20806,0.3778 -1.32041,0.9992 -0.07855,0.4445 0.02187,0.8591 0.26647,1.2389 0.99925,1.5581 1.99752,3.1191 2.99578,4.6811 0.34402,0.5359 0.68904,1.0748 1.02809,1.6157 0.04673,0.0746 0.09148,0.1661 0.09148,0.2496 0.005,1.2498 0.003,2.5006 0.003,3.7514 0,0.0328 -0.009,0.0676 -0.01293,0.1203"
           style="fill:#ffffff;fill-opacity:1;fill-rule:evenodd;stroke:none"
           id="path6438" />
      </g>
    </g>
  </g>
</svg>
