<?xml version="1.0" encoding="UTF-8" standalone="no"?>
<!-- Created with Inkscape (http://www.inkscape.org/) -->

<svg
   version="1.1"
   id="svg2"
   width="559.37012"
   height="793.70081"
   viewBox="0 0 559.37012 793.70081"
   sodipodi:docname="wash-on.svg"
   inkscape:version="1.2.1 (9c6d41e410, 2022-07-14)"
   xml:space="preserve"
   inkscape:export-filename="wash-on.png"
   inkscape:export-xdpi="17.848648"
   inkscape:export-ydpi="17.848648"
   xmlns:inkscape="http://www.inkscape.org/namespaces/inkscape"
   xmlns:sodipodi="http://sodipodi.sourceforge.net/DTD/sodipodi-0.dtd"
   xmlns="http://www.w3.org/2000/svg"
   xmlns:svg="http://www.w3.org/2000/svg"><defs
     id="defs6"><clipPath
       clipPathUnits="userSpaceOnUse"
       id="clipPath5174"><path
         d="m 52.37965,441.0156 h 13.75296 v 17.798 H 52.37965 Z"
         id="path5172" /></clipPath><clipPath
       clipPathUnits="userSpaceOnUse"
       id="clipPath2046"><path
         d="m 279.36,134.7156 h 13.92001 v 12 H 279.36 Z"
         id="path2044" /></clipPath><clipPath
       clipPathUnits="userSpaceOnUse"
       id="clipPath2359"><g
         id="g2363"><path
           d="M -396.54927,129.98469 H 11.929044 V 460.64877 H -396.54927 Z"
           id="path2361"
           style="stroke-width:29.6347" /></g></clipPath></defs><sodipodi:namedview
     id="namedview4"
     pagecolor="#000000"
     bordercolor="#cccccc"
     borderopacity="1"
     inkscape:showpageshadow="0"
     inkscape:pageopacity="0"
     inkscape:pagecheckerboard="false"
     inkscape:deskcolor="#d1d1d1"
     showgrid="false"
     inkscape:zoom="0.84100809"
     inkscape:cx="222.3522"
     inkscape:cy="376.33407"
     inkscape:window-width="1920"
     inkscape:window-height="1002"
     inkscape:window-x="0"
     inkscape:window-y="0"
     inkscape:window-maximized="1"
     inkscape:current-layer="g8"
     showborder="true"
     borderlayer="true" /><g
     id="g8"
     inkscape:groupmode="layer"
     inkscape:label="43033251 co e_cso e 5d_5t itdeenesfr"
     transform="matrix(1.3333333,0,0,-1.3333333,0,793.7008)"><g
       id="g5168"
       transform="matrix(30.309522,0,0,30.309522,-1584.9202,-13339.059)"
       style="fill:#ffffff"><g
         id="g5170"
         clip-path="url(#clipPath5174)"
         style="fill:#ffffff"><path
           id="path2548"
           style="fill:#ffffff;fill-opacity:1;fill-rule:evenodd;stroke:none"
           d="m 62.330166,458.81388 c -0.17146,-0.002 -0.326091,-0.0823 -0.493879,-0.2273 -0.448404,-0.37584 -0.912775,-0.73997 -1.406919,-1.04797 -0.81929,-0.509 -1.680344,-0.51384 -2.502598,-0.006 -0.5051,0.31084 -0.974398,0.68399 -1.434758,1.06199 -0.25155,0.208 -0.465307,0.28401 -0.772547,0.13701 -0.537894,-0.253 -1.091759,-0.47501 -1.633633,-0.72001 -0.39573,-0.179 -0.634325,-0.493 -0.720835,-0.92 -0.337044,-1.682 -0.66919,-3.36601 -1.007234,-5.05101 -0.12826,-0.635 0.06465,-0.96 0.688066,-1.163 0.3132,-0.101 0.618448,-0.22299 0.938608,-0.29999 0.342024,-0.083 0.460356,-0.28401 0.458356,-0.62301 -0.008,-1.324 -9.9e-4,-2.653 0,-3.981 -9.9e-4,-0.742 0.240632,-0.982 0.975386,-0.985 l 1.274691,0.004 h 0.186938 l 0.277363,9.7e-4 v 2.4e-4 l 4.8e-5,-2.4e-4 c 0,0.0557 -0.0016,0.11015 -0.0044,0.16321 -9.53e-4,0.0177 -0.0021,0.0352 -0.0033,0.0526 -0.01359,0.19111 -0.04373,0.36304 -0.07883,0.50915 -0.0032,0.0133 -0.0064,0.0263 -0.0097,0.0392 -0.0261,0.10282 -0.05425,0.19165 -0.07999,0.26398 -0.0032,0.009 -0.0064,0.0178 -0.0095,0.0263 -0.02192,0.0596 -0.04156,0.1064 -0.05592,0.13856 h -0.03282 l -0.877953,-0.002 c -0.61944,0.002 -0.61946,0.004 -0.57372,0.622 0,0 -0.01789,7.11799 -0.02189,7.41399 -0.005,0.167 -0.04671,0.31802 -0.25054,0.32202 -0.21973,0.003 -0.267474,-0.15001 -0.265474,-0.33101 0.002,-0.277 0.002,-0.55201 0,-0.87501 l -0.03876,-1.15101 -0.002,-1.05001 c -0.333065,0.106 -0.66614,0.21501 -0.995249,0.31501 -0.38479,0.117 -0.297288,0.28202 -0.240633,0.64902 0,0 0.174027,1.00997 0.271467,1.58197 0.09843,0.573 0.362881,1.91002 0.573671,2.83902 0.03778,0.167 0.220733,0.34599 0.379822,0.42699 0.413605,0.221 0.857081,0.38403 1.283631,0.58503 0.15809,0.079 0.242604,0.032 0.374844,-0.063 0.464315,-0.352 0.93065,-0.71999 1.436739,-1.00399 0.813315,-0.469 1.679368,-0.46443 2.496653,0.008 0.495134,0.282 0.949536,0.64096 1.405905,0.99196 0.14119,0.107 0.233668,0.14989 0.398718,0.067 0.423559,-0.199 0.870985,-0.35602 1.280635,-0.57802 0.166039,-0.09 0.316198,-0.284 0.375858,-0.463 0.11136,-0.328 0.670137,-3.26499 0.670137,-3.26499 0.03878,-0.187 0.110357,-0.63702 0.180946,-1.04402 0.0696,-0.41 0.151113,-0.57697 -0.03378,-0.64297 -0.392724,-0.142 -0.793459,-0.26003 -1.193158,-0.38703 0,0 -0.269458,-0.12199 -0.107388,1.07601 0.03082,0.628 0.06963,1.24802 0.05471,1.87601 -0.003,0.198 0.04376,0.463 -0.248559,0.46 -0.304235,0.001 -0.265489,-0.27201 -0.266489,-0.48001 l -0.0099,-3.48697 c 0.09545,-0.033 0.192875,-0.059 0.290315,-0.08 0.32016,-0.068 0.625445,-0.081 0.85809,-0.052 0.08352,0.058 0.21079,0.10301 0.40766,0.16601 l 0.08351,0.027 c 0.05071,0.025 0.105377,0.041 0.160067,0.051 0.19985,0.064 0.400732,0.12499 0.602572,0.18999 0.591599,0.194 0.787436,0.50903 0.667141,1.12303 -0.21676,1.096 -0.443446,2.191 -0.668156,3.288 -0.11931,0.597 -0.238633,1.19498 -0.358943,1.78998 -0.08352,0.426 -0.32413,0.73998 -0.71489,0.92198 -0.533914,0.244 -1.076835,0.45603 -1.60478,0.70803 -0.121552,0.0577 -0.230491,0.0845 -0.333377,0.0833 z" /><path
           id="path2542"
           style="fill:#ffffff;fill-opacity:1;fill-rule:evenodd;stroke:none"
           d="m 58.883114,443.11361 c -5.8e-5,-8e-5 -1.36e-4,-2.1e-4 -1.94e-4,-2.9e-4 h 1.94e-4 z m -1.94e-4,-2.9e-4 c -0.0017,-6e-5 -0.0034,-1.3e-4 -0.0051,-2e-4 -0.0013,-0.004 -0.0026,-0.009 -0.0039,-0.0129 0.0031,0.004 0.0064,0.009 0.009,0.013 z m -0.439073,-0.0814 c -3.17e-4,-1.2e-4 -6.65e-4,-2.1e-4 -9.67e-4,-3.4e-4 -6.87e-4,-0.004 -0.0012,-0.008 -0.002,-0.0123 10e-4,1.4e-4 0.002,2.8e-4 0.003,4.3e-4 -5.4e-5,0.004 -1.44e-4,0.008 -4.8e-5,0.0122 z" /></g></g><path
       style="fill:#ffffff;fill-opacity:1;fill-rule:evenodd;stroke:none;stroke-width:50.5863"
       d="M 91.337427,285.0791 C 60.353475,285.23086 29.769889,279.86921 -7.3788149e-6,271.21895 L 6.9863301,231.91393 c 27.3619779,8.24558 55.6800289,13.55632 84.2510859,13.45509 33.948314,-0.20233 81.327114,-8.49985 112.563994,-20.28638 40.28679,-14.26527 96.77099,-23.97784 139.77421,-23.47198 23.03689,0.25292 45.8716,3.44167 68.00296,9.71436 l 7.94902,44.26345 c -24.49375,-9.15606 -50.0965,-13.9642 -76.25454,-14.26772 -38.52638,-0.30354 -90.02818,8.29692 -126.1416,20.99399 -35.46084,13.40531 -87.26767,22.56201 -125.794033,22.76436 z"
       id="path2531" /><text
       xml:space="preserve"
       style="font-style:normal;font-variant:normal;font-weight:bold;font-stretch:normal;font-size:30px;line-height:1.25;font-family:'Liberation Sans';-inkscape-font-specification:'Liberation Sans, Bold';font-variant-ligatures:normal;font-variant-caps:normal;font-variant-numeric:normal;font-variant-east-asian:normal;white-space:pre;inline-size:82.4477;display:inline;fill:#ffffff;fill-opacity:1;stroke:none;stroke-width:0.75"
       x="35.671478"
       y="-110.58942"
       id="text3753"
       transform="matrix(4.4651655,0,0,-4.4651655,-121.57198,-453.03487)"><tspan
         x="35.671478"
         y="-110.58942"
         id="tspan161">Wash</tspan></text></g></svg>
