<?xml version="1.0" encoding="UTF-8" standalone="no"?>
<!-- Created with Inkscape (http://www.inkscape.org/) -->

<svg
   version="1.1"
   id="svg2"
   width="559.37012"
   height="793.70081"
   viewBox="0 0 559.37012 793.70081"
   sodipodi:docname="cottons.svg"
   inkscape:version="1.2.1 (9c6d41e410, 2022-07-14)"
   inkscape:export-filename="cottons-test.png"
   inkscape:export-xdpi="5.1486483"
   inkscape:export-ydpi="5.1486483"
   xmlns:inkscape="http://www.inkscape.org/namespaces/inkscape"
   xmlns:sodipodi="http://sodipodi.sourceforge.net/DTD/sodipodi-0.dtd"
   xmlns="http://www.w3.org/2000/svg"
   xmlns:svg="http://www.w3.org/2000/svg">
  <defs
     id="defs6">
    <clipPath
       clipPathUnits="userSpaceOnUse"
       id="clipPath5174">
      <path
         d="m 52.37965,441.0156 h 13.75296 v 17.798 H 52.37965 Z"
         id="path5172" />
    </clipPath>
  </defs>
  <sodipodi:namedview
     id="namedview4"
     pagecolor="#000000"
     bordercolor="#cccccc"
     borderopacity="1"
     inkscape:showpageshadow="0"
     inkscape:pageopacity="0"
     inkscape:pagecheckerboard="false"
     inkscape:deskcolor="#d1d1d1"
     showgrid="false"
     inkscape:zoom="0.84100809"
     inkscape:cx="146.25305"
     inkscape:cy="433.40843"
     inkscape:window-width="1920"
     inkscape:window-height="1002"
     inkscape:window-x="0"
     inkscape:window-y="0"
     inkscape:window-maximized="1"
     inkscape:current-layer="g8"
     showborder="true"
     borderlayer="true" />
  <g
     id="g8"
     inkscape:groupmode="layer"
     inkscape:label="43033251 co e_cso e 5d_5t itdeenesfr"
     transform="matrix(1.3333333,0,0,-1.3333333,0,793.7008)">
    <g
       id="g5168"
       transform="matrix(27.698995,0,0,27.698995,-1430.346,-12164.545)"
       style="fill:#ffffff">
      <g
         id="g5170"
         clip-path="url(#clipPath5174)"
         style="fill:#ffffff">
        <path
           d="m 57.1572,444.9936 -0.2774,-0.001 h -0.18693 l -1.27468,-0.004 c -0.73477,0.003 -0.97638,0.243 -0.97539,0.985 -9.9e-4,1.328 -0.008,2.657 0,3.981 0.002,0.339 -0.11633,0.54 -0.45837,0.623 -0.32016,0.077 -0.6254,0.199 -0.9386,0.3 -0.62342,0.203 -0.81631,0.528 -0.68805,1.163 0.33806,1.685 0.67015,3.369 1.00721,5.051 0.08651,0.427 0.32513,0.741 0.72086,0.92 0.54189,0.245 1.0957,0.467 1.63361,0.72 0.30724,0.147 0.52101,0.071 0.77256,-0.137 0.46036,-0.378 0.92966,-0.751 1.43476,-1.062 0.82227,-0.508 1.68332,-0.503 2.50261,0.006 0.49416,0.308 0.9585,0.672 1.40692,1.048 0.26846,0.232 0.50311,0.298 0.82725,0.144 0.52796,-0.252 1.07084,-0.464 1.60477,-0.708 0.39076,-0.182 0.63137,-0.496 0.71489,-0.922 0.12031,-0.595 0.23963,-1.193 0.35894,-1.79 0.22471,-1.097 0.4514,-2.192 0.66816,-3.288 0.12031,-0.614 -0.07557,-0.929 -0.66717,-1.123 -0.20184,-0.065 -0.40268,-0.126 -0.60253,-0.19 -0.05469,-0.01 -0.10937,-0.026 -0.16008,-0.051 l -0.08352,-0.027 c -0.19687,-0.063 -0.32414,-0.108 -0.40766,-0.166 -0.23266,-0.029 -0.53791,-0.016 -0.85807,0.052 -0.09744,0.021 -0.19488,0.047 -0.29033,0.08 l 0.0099,3.487 c 0.001,0.208 -0.03778,0.481 0.26647,0.48 0.29232,0.003 0.24559,-0.262 0.24857,-0.46 0.01492,-0.628 -0.02386,-1.248 -0.05468,-1.876 -0.16207,-1.198 0.10738,-1.076 0.10738,-1.076 0.3997,0.127 0.8004,0.245 1.19314,0.387 0.18494,0.066 0.10341,0.233 0.03381,0.643 -0.07059,0.407 -0.14218,0.857 -0.18096,1.044 0,0 -0.55879,2.937 -0.67015,3.265 -0.05966,0.179 -0.2098,0.373 -0.37584,0.463 -0.40965,0.222 -0.85708,0.379 -1.28064,0.578 -0.16505,0.083 -0.25752,0.04 -0.39871,-0.067 -0.45637,-0.351 -0.91077,-0.71 -1.40592,-0.992 -0.8173,-0.472 -1.68332,-0.477 -2.49665,-0.008 -0.50609,0.284 -0.97241,0.652 -1.43674,1.004 -0.13224,0.095 -0.21676,0.142 -0.37485,0.063 -0.42655,-0.201 -0.87,-0.364 -1.28362,-0.585 -0.15909,-0.081 -0.34204,-0.26 -0.37982,-0.427 -0.21079,-0.929 -0.47527,-2.266 -0.5737,-2.839 -0.09744,-0.572 -0.27144,-1.582 -0.27144,-1.582 -0.05667,-0.367 -0.14417,-0.532 0.24062,-0.649 0.32911,-0.1 0.66219,-0.209 0.99527,-0.315 l 0.002,1.05 0.03878,1.151 c 0.002,0.323 0.002,0.598 0,0.875 -0.002,0.181 0.04574,0.334 0.26547,0.331 0.20383,-0.004 0.24559,-0.155 0.25056,-0.322 0.004,-0.296 0.02188,-7.414 0.02188,-7.414 -0.04574,-0.618 -0.04574,-0.62 0.5737,-0.622 l 0.87796,0.002 h 0.03281 c 0.06562,-0.147 0.24161,-0.599 0.24161,-1.193 z m -0.24161,1.193 c 0.06562,-0.147 0.24161,-0.599 0.24161,-1.193"
           style="fill:#ffffff;fill-opacity:1;fill-rule:evenodd;stroke:none"
           id="path5176" />
        <path
           d="m 61.56586,450.7506 c 0,0 0.91574,-1.776 -0.69103,-3.292 0.60851,0.564 2.77804,0.236 3.29606,-0.7 -0.39175,0.691 -0.45339,2.371 0.69103,3.292 -0.56575,-0.432 -2.41214,-0.423 -3.29606,0.7"
           style="fill:#ffffff;fill-opacity:1;fill-rule:evenodd;stroke:none"
           id="path5178" />
        <path
           d="m 57.7836,446.7016 c 0,0 1.31345,-2.557 -0.99727,-4.74 0.87497,0.816 3.99803,0.341 4.74275,-1.006 -0.56078,0.999 -0.65126,3.415 0.99726,4.739 -0.81631,-0.621 -3.47304,-0.607 -4.74274,1.007 z m 0.47427,-3.782 c 1.12554,1.062 0.48422,2.31 0.48422,2.31 0.62044,-0.787 1.91301,-0.794 2.31271,-0.494 -0.80338,-0.644 -0.75963,-1.821 -0.48521,-2.308 -0.3649,0.659 -1.88716,0.888 -2.31172,0.492"
           style="fill:#ffffff;fill-opacity:1;fill-rule:evenodd;stroke:none"
           id="path5180" />
      </g>
    </g>
  </g>
</svg>
