<?xml version="1.0" encoding="UTF-8" standalone="no"?>
<!-- Created with Inkscape (http://www.inkscape.org/) -->

<svg
   version="1.1"
   id="svg2"
   width="559.37012"
   height="793.70081"
   viewBox="0 0 559.37012 793.70081"
   sodipodi:docname="delicate.svg"
   inkscape:export-filename="Drain and Spin.png"
   inkscape:export-xdpi="10.983783"
   inkscape:export-ydpi="10.983783"
   inkscape:version="1.2.1 (9c6d41e410, 2022-07-14)"
   xmlns:inkscape="http://www.inkscape.org/namespaces/inkscape"
   xmlns:sodipodi="http://sodipodi.sourceforge.net/DTD/sodipodi-0.dtd"
   xmlns="http://www.w3.org/2000/svg"
   xmlns:svg="http://www.w3.org/2000/svg">
  <defs
     id="defs6">
    <clipPath
       clipPathUnits="userSpaceOnUse"
       id="clipPath7370">
      <path
         d="m 48.29956,277.7556 h 21.13417 v 15.86594 H 48.29956 Z"
         id="path7368" />
    </clipPath>
  </defs>
  <sodipodi:namedview
     id="namedview4"
     pagecolor="#000000"
     bordercolor="#cccccc"
     borderopacity="1"
     inkscape:showpageshadow="0"
     inkscape:pageopacity="0"
     inkscape:pagecheckerboard="0"
     inkscape:deskcolor="#d1d1d1"
     showgrid="false"
     inkscape:zoom="0.84100809"
     inkscape:cx="313.90899"
     inkscape:cy="445.29893"
     inkscape:window-width="1920"
     inkscape:window-height="1002"
     inkscape:window-x="0"
     inkscape:window-y="0"
     inkscape:window-maximized="1"
     inkscape:current-layer="g8" />
  <g
     id="g8"
     inkscape:groupmode="layer"
     inkscape:label="43033251 co e_cso e 5d_5t itdeenesfr"
     transform="matrix(1.3333333,0,0,-1.3333333,0,793.7008)">
    <g
       id="g7364"
       transform="matrix(19.851145,0,0,19.851145,-958.80156,-5373.6051)"
       style="fill:#ffffff">
      <g
         id="g7366"
         clip-path="url(#clipPath7370)"
         style="fill:#ffffff">
        <path
           d="m 54.89524,290.4356 c -9.9e-4,-0.005 -0.56188,-1.9205 0.54997,-2.5537 l 1.24886,-0.7045 c 0.44275,-0.2452 0.33057,-0.9587 -0.21543,-1.006 -0.0089,0 -2.71709,-0.1246 -2.68731,-1.5587 -0.07843,-0.0231 -0.15586,-0.0503 -0.23131,-0.0804 -0.27399,-0.1096 -0.52614,-0.2633 -0.75645,-0.4583 -0.5202,1.7467 0.86069,2.5698 2.08075,2.9044 -1.66778,1.002 -1.08704,3.408 -1.00464,3.7195 1.51292,7.2491 6.40111,-1.2632 6.41501,-1.2873 0.14791,-0.2543 0.06552,-0.5809 -0.18465,-0.7307 -0.24819,-0.1497 -0.57082,-0.0663 -0.71874,0.1879 -0.0089,0.0171 -3.549,6.1165 -4.49606,1.5678 z m 9.02588,-11.4107 v 0 c 0.65123,0.1367 1.3501,0.4914 1.72734,1.0643 0.13005,0.21 0.18862,0.3135 0.26209,0.7025 0.09926,0.7306 -0.2333,1.5286 -0.61748,2.1738 1.98545,-0.4694 3.22438,1.9366 3.26507,2.018 3.75946,6.2461 -5.80943,3.5889 -5.83723,3.5808 -0.27895,-0.0743 -0.44672,-0.3658 -0.37327,-0.6502 0.07347,-0.2844 0.36036,-0.4543 0.64031,-0.3809 0.02085,0.006 7.07318,1.9547 4.66086,-2.0231 -0.002,-0.006 -0.91431,-1.818 -2.14925,-1.4974 l -1.3789,0.3638 c -0.53608,0.1648 -0.88155,-0.5045 -0.53111,-0.8774 0.0069,-0.008 2.53244,-2.6833 0.1777,-3.418 -0.38519,-0.0341 -3.23828,-0.194 -2.63272,2.614 0.06056,0.2895 -0.11913,0.5739 -0.40305,0.6352 -0.28292,0.0623 -0.56188,-0.1206 -0.62244,-0.409 -0.59563,-2.7628 1.00067,-3.5989 2.3081,-3.8321 0.48345,-0.1035 0.97485,-0.1518 1.50398,-0.0643 z m -4.4504,4.6793 v 0 c -0.29881,0.1085 -0.20748,1.1215 0.20252,2.2592 0.40801,1.1356 0.97883,1.9698 1.27665,1.8592 0.29881,-0.1105 0.20648,-1.1216 -0.20252,-2.2592 -0.40901,-1.1376 -0.9828,-1.9718 -1.27665,-1.8592 z m 2.25945,6.2179 v 0 c 0.32958,-0.1146 0.50331,-0.4804 0.39213,-0.8151 -0.11318,-0.3336 -0.47056,-0.5125 -0.80213,-0.399 -0.32859,0.1146 -0.50331,0.4815 -0.39014,0.8141 0.11416,0.3367 0.47056,0.5135 0.80014,0.4"
           style="fill:#ffffff;fill-opacity:1;fill-rule:evenodd;stroke:none"
           id="path7372" />
        <path
           d="m 48.24,279.6168 h 0.56585 c 0.02085,-0.3738 0.1648,-0.6924 0.43184,-0.9527 0.26804,-0.2603 0.57975,-0.39 0.93713,-0.39 0.3822,0 0.70583,0.1448 0.9699,0.4362 0.26406,0.2895 0.3951,0.6502 0.3951,1.0753 0,0.4322 -0.13104,0.7809 -0.3951,1.0493 -0.26407,0.2673 -0.61053,0.401 -1.03641,0.401 -0.24123,0 -0.45963,-0.0553 -0.6552,-0.1649 -0.19457,-0.1095 -0.36731,-0.2753 -0.5182,-0.4984 l -0.42986,0.2 0.50332,2.8501 h 2.56223 v -0.5658 h -2.08572 l -0.28491,-1.604 c 0.1638,0.1186 0.32561,0.2051 0.48544,0.2583 0.16082,0.0543 0.33356,0.0814 0.5192,0.0814 0.55493,0 1.0096,-0.1899 1.364,-0.5688 0.35242,-0.3789 0.52913,-0.8633 0.52913,-1.4542 0,-0.5578 -0.18862,-1.0322 -0.56685,-1.4251 -0.37823,-0.392 -0.83786,-0.5889 -1.37592,-0.5889 -0.51126,0 -0.95004,0.1738 -1.3104,0.5235 -0.36036,0.3488 -0.56387,0.795 -0.60457,1.3377 z m 6.41599,0.7538 c 0.38816,0 0.71675,0.1366 0.97982,0.411 0.26308,0.2734 0.39511,0.611 0.39511,1.011 0,0.4041 -0.13402,0.7468 -0.40404,1.0251 -0.26804,0.2774 -0.59464,0.4161 -0.97883,0.4161 -0.37227,0 -0.68399,-0.1346 -0.93415,-0.403 -0.25216,-0.2683 -0.37724,-0.612 -0.37724,-1.0301 0,-0.4171 0.12409,-0.7598 0.37326,-1.0281 0.2472,-0.2674 0.56288,-0.402 0.94607,-0.402 z m -0.13401,-2.5005 h -0.69789 l 1.32529,2.0844 c -0.12111,-0.0281 -0.23329,-0.0493 -0.33554,-0.0643 -0.10126,-0.0151 -0.19359,-0.0221 -0.27598,-0.0221 -0.51523,0 -0.9411,0.1829 -1.27764,0.5447 -0.33753,0.3648 -0.5053,0.8221 -0.5053,1.3718 0,0.5658 0.18266,1.0342 0.546,1.403 0.36334,0.3708 0.82694,0.5557 1.38982,0.5557 0.55096,0 1.00861,-0.1819 1.37393,-0.5467 0.36632,-0.3648 0.54799,-0.814 0.54799,-1.3447 0,-0.4613 -0.23428,-1.0572 -0.70285,-1.7869 -0.04368,-0.0703 -0.07744,-0.1236 -0.10126,-0.1618 z m 3.06752,4.0612 h -0.54997 l 0.59663,1.6914 h 0.56188 l -0.60854,-1.6914"
           style="fill:#ffffff;fill-opacity:1;fill-rule:nonzero;stroke:none"
           id="path7374" />
      </g>
    </g>
  </g>
</svg>
