<?xml version="1.0" encoding="UTF-8" standalone="no"?>
<!-- Created with Inkscape (http://www.inkscape.org/) -->

<svg
   version="1.1"
   id="svg2"
   width="559.37012"
   height="793.70081"
   viewBox="0 0 559.37012 793.70081"
   sodipodi:docname="drain-and-spin.svg"
   inkscape:version="1.2.1 (9c6d41e410, 2022-07-14)"
   inkscape:export-filename="drain-and-spin.png"
   inkscape:export-xdpi="10.983783"
   inkscape:export-ydpi="10.983783"
   xmlns:inkscape="http://www.inkscape.org/namespaces/inkscape"
   xmlns:sodipodi="http://sodipodi.sourceforge.net/DTD/sodipodi-0.dtd"
   xmlns="http://www.w3.org/2000/svg"
   xmlns:svg="http://www.w3.org/2000/svg">
  <defs
     id="defs6">
    <clipPath
       clipPathUnits="userSpaceOnUse"
       id="clipPath7096">
      <path
         d="m 43.44,302.2356 h 30.69375 v 13.11362 H 43.44 Z"
         id="path7094" />
    </clipPath>
    <clipPath
       clipPathUnits="userSpaceOnUse"
       id="clipPath7106">
      <path
         d="m 43.44,302.2356 h 31.2 v 13.92001 h -31.2 z"
         id="path7104" />
    </clipPath>
  </defs>
  <sodipodi:namedview
     id="namedview4"
     pagecolor="#000000"
     bordercolor="#cccccc"
     borderopacity="1"
     inkscape:showpageshadow="0"
     inkscape:pageopacity="0"
     inkscape:pagecheckerboard="0"
     inkscape:deskcolor="#d1d1d1"
     showgrid="false"
     inkscape:zoom="1.1893651"
     inkscape:cx="240.46443"
     inkscape:cy="374.56959"
     inkscape:window-width="1920"
     inkscape:window-height="1002"
     inkscape:window-x="0"
     inkscape:window-y="0"
     inkscape:window-maximized="1"
     inkscape:current-layer="g8" />
  <g
     id="g8"
     inkscape:groupmode="layer"
     inkscape:label="43033251 co e_cso e 5d_5t itdeenesfr"
     transform="matrix(1.3333333,0,0,-1.3333333,0,793.7008)">
    <g
       id="g10564"
       transform="matrix(13.231809,0,0,13.231809,-568.09462,-3788.2443)"
       style="fill:#ffffff">
      <g
         id="g7090"
         style="fill:#ffffff">
        <g
           id="g7092"
           clip-path="url(#clipPath7096)"
           style="fill:#ffffff">
          <path
             d="m 52.9399,306.7477 0.32105,1.7897 c -0.44283,-0.1213 -0.90178,-0.185 -1.36273,-0.189 -0.85951,-0.009 -1.86999,0.183 -2.67817,0.4624 -0.63004,0.2327 -1.71197,0.3957 -2.40542,0.3997 -0.57368,0.003 -1.1383,-0.1004 -1.68883,-0.2625 l 0.39655,-2.1993 H 47.029 v -0.8611 h -2.25847 l -1.31644,7.4154 c -0.12782,0.5747 0.66727,0.861 0.85951,0.1611 l 0.67231,-3.7425 c 0.59884,0.17 1.20975,0.2744 1.83174,0.2714 0.78201,-0.004 1.95453,-0.1839 2.67112,-0.4484 0.72364,-0.2496 1.63347,-0.4216 2.4014,-0.4126 0.52033,0.005 1.04067,0.0994 1.52879,0.2764 l 0.72868,4.0547 c 0.19122,0.7009 0.98833,0.4146 0.86152,-0.1601 l -1.31744,-7.4154 h -2.2605 v 0.8601 z m -3.70979,-4.5121 v 0 c 0.11776,-10e-4 0.2335,0.0447 0.31704,0.1273 l 1.61837,1.6485 c 0.14392,0.1243 0.19324,0.3341 0.1087,0.512 -0.13487,0.2864 -0.52034,0.2954 -0.72666,0.0746 l -0.85347,-0.8789 v 3.652 h -0.92594 v -3.652 l -0.85447,0.8789 c -0.20633,0.2208 -0.59079,0.2118 -0.72666,-0.0746 -0.08455,-0.1779 -0.03523,-0.3877 0.1087,-0.512 l 1.61736,-1.6485 c 0.08354,-0.0826 0.20029,-0.1283 0.31703,-0.1273"
             style="fill:#ffffff;fill-opacity:1;fill-rule:evenodd;stroke:none"
             id="path7098" />
        </g>
      </g>
      <g
         id="g7100"
         style="fill:#ffffff">
        <g
           id="g7102"
           clip-path="url(#clipPath7106)"
           style="fill:#ffffff">
          <path
             d="m 70.67256,314.4116 c 1.51069,-0.868 2.44669,-2.4748 2.44669,-4.1919 0,-2.3783 -1.94749,-4.3112 -4.34384,-4.3112 -2.09645,0 -3.80339,1.6952 -3.80339,3.7763 0,1.7887 1.46439,3.2404 3.26594,3.2404 1.50263,0 2.72547,-1.214 2.72547,-2.7055 0,-1.1981 -0.98028,-2.1705 -2.18802,-2.1705 -0.90984,0 -1.64857,0.7348 -1.64857,1.6356 0,0.6045 0.50221,1.0937 1.10911,1.0997 0.27677,0 0.5002,0.2247 0.5002,0.5041 0,0.2794 -0.22343,0.5051 -0.5002,0.5051 -1.16145,-0.0139 -2.12261,-0.9546 -2.12261,-2.1089 0,-1.4567 1.19365,-2.6418 2.66207,-2.6418 1.76531,0 3.20253,1.4248 3.20253,3.1767 0,2.0453 -1.67776,3.7117 -3.73998,3.7117 -2.36114,0 -4.28044,-1.9041 -4.28044,-4.2466 0,-2.6359 2.16186,-4.7805 4.81789,-4.7805 2.95494,0 5.35834,2.3842 5.35834,5.3154 0,2.095 -1.14937,4.0458 -2.99721,5.0878 -0.06241,0.0268 -0.12983,0.0417 -0.20028,0.0417 -0.27678,0 -0.50122,-0.2267 -0.50122,-0.51 0,-0.171 0.10568,-0.3371 0.23752,-0.4276"
             style="fill:#ffffff;fill-opacity:1;fill-rule:nonzero;stroke:none"
             id="path7108" />
          <path
             d="m 59.15675,312.9968 v -2.1467 h -2.12161 v -0.6771 h 2.12161 v -2.1546 h 0.7025 v 2.1546 h 2.1216 v 0.6771 h -2.1216 v 2.1467 h -0.7025"
             style="fill:#ffffff;fill-opacity:1;fill-rule:evenodd;stroke:none"
             id="path7110" />
        </g>
      </g>
    </g>
  </g>
</svg>
