<?xml version="1.0" encoding="UTF-8" standalone="no"?>
<!-- Created with Inkscape (http://www.inkscape.org/) -->

<svg
   version="1.1"
   id="svg2"
   width="559.37012"
   height="793.70081"
   viewBox="0 0 559.37012 793.70081"
   sodipodi:docname="mixed-and-coloured.svg"
   inkscape:export-filename="mixed-and-coloured.png"
   inkscape:export-xdpi="10.983783"
   inkscape:export-ydpi="10.983783"
   inkscape:version="1.2.1 (9c6d41e410, 2022-07-14)"
   xmlns:inkscape="http://www.inkscape.org/namespaces/inkscape"
   xmlns:sodipodi="http://sodipodi.sourceforge.net/DTD/sodipodi-0.dtd"
   xmlns="http://www.w3.org/2000/svg"
   xmlns:svg="http://www.w3.org/2000/svg">
  <defs
     id="defs6">
    <clipPath
       clipPathUnits="userSpaceOnUse"
       id="clipPath9110">
      <path
         d="m 46.56,136.2156 h 24.13632 v 17.798 H 46.56 Z"
         id="path9108" />
    </clipPath>
  </defs>
  <sodipodi:namedview
     id="namedview4"
     pagecolor="#000000"
     bordercolor="#cccccc"
     borderopacity="1"
     inkscape:showpageshadow="0"
     inkscape:pageopacity="0"
     inkscape:pagecheckerboard="0"
     inkscape:deskcolor="#d1d1d1"
     showgrid="false"
     inkscape:zoom="1.1893651"
     inkscape:cx="281.66288"
     inkscape:cy="476.30454"
     inkscape:window-width="1920"
     inkscape:window-height="1002"
     inkscape:window-x="0"
     inkscape:window-y="0"
     inkscape:window-maximized="1"
     inkscape:current-layer="g8" />
  <g
     id="g8"
     inkscape:groupmode="layer"
     inkscape:label="43033251 co e_cso e 5d_5t itdeenesfr"
     transform="matrix(1.3333333,0,0,-1.3333333,0,793.7008)">
    <g
       id="g9104"
       transform="matrix(16.411128,0,0,16.411128,-752.39044,-2083.8543)"
       style="fill:#ffffff">
      <g
         id="g9106"
         clip-path="url(#clipPath9110)"
         style="fill:#ffffff">
        <path
           d="m 52.04121,142.9646 -0.36242,1.565 c -0.11481,0.493 -0.14377,0.515 -0.65295,0.558 -0.26657,0.022 -0.53315,0.039 -0.80072,0.062 -0.5611,0.047 -0.79872,0.282 -0.81569,0.844 -0.03395,1.008 -0.05591,2.015 -0.08486,3.022 -0.01398,0.55 -0.03395,1.096 -0.04792,1.644 -0.01299,0.392 0.13278,0.717 0.44228,0.957 0.41833,0.323 0.85564,0.621 1.26797,0.95 0.25559,0.201 0.47524,0.191 0.75879,0.044 0.47024,-0.237 0.95347,-0.461 1.45167,-0.63 0.82668,-0.278 1.58646,-0.106 2.20646,0.509 0.38039,0.377 0.71885,0.8 1.04533,1.226 0.17971,0.233 0.35343,0.345 0.65395,0.279 0.52416,-0.113 1.05631,-0.193 1.58347,-0.295 0.38438,-0.076 0.66093,-0.303 0.82267,-0.659 0.64197,-1.407 1.27896,-2.815 1.91993,-4.223 0.24061,-0.53 0.13678,-0.855 -0.37041,-1.161 -0.25459,-0.152 -0.5002,-0.322 -0.76677,-0.456 -0.28254,-0.144 -0.34744,-0.343 -0.27556,-0.64 0.27856,-1.162 0.54413,-2.328 0.8127,-3.493 0.15175,-0.65 -0.01098,-0.91 -0.65595,-1.062 -0.92851,-0.215 -1.85702,-0.428 -2.78453,-0.643 l 0.08785,0.239 c 0.04693,0.105 0.07688,0.218 0.08487,0.339 l 2.27535,0.526 c 0.60403,0.143 0.60204,0.143 0.41833,0.734 -0.004,0.017 -0.02496,0.027 -0.04892,0.052 l -2.83147,-0.657 c -0.16373,0.224 -0.41732,0.377 -0.70786,0.404 l 3.44548,0.799 c -0.04793,0.209 -0.09285,0.4 -0.14377,0.613 -2.02376,-0.471 -4.03553,-0.938 -6.05729,-1.405 -0.27357,0.079 -0.5621,0.118 -0.86362,0.118 -0.35643,0 -0.69289,-0.053 -1.00639,-0.16 z m 8.16791,7.265 v 0 c -0.40834,0.903 -0.78574,1.773 -1.20307,2.626 -0.07488,0.153 -0.29153,0.286 -0.46725,0.329 -0.45228,0.119 -0.92252,0.177 -1.38179,0.276 -0.17372,0.04 -0.2446,-0.024 -0.35443,-0.147 -0.3724,-0.447 -0.74181,-0.91 -1.17112,-1.303 -0.69189,-0.64 -1.53454,-0.83 -2.43809,-0.56 -0.54713,0.163 -1.07328,0.409 -1.59744,0.645 -0.15875,0.072 -0.26158,0.089 -0.40336,-0.026 -0.3684,-0.29 -0.76976,-0.546 -1.11821,-0.856 -0.14077,-0.122 -0.2446,-0.346 -0.26357,-0.534 -0.03395,-0.343 0,-0.691 0.01298,-1.036 0.01797,-0.585 0.03794,-1.164 0.0589,-1.761 0.35943,-0.03 0.6859,-0.06 1.03934,-0.093 -0.05791,0.259 -0.10883,0.463 -0.15376,0.669 -0.03993,0.194 -0.14676,0.439 0.13878,0.504 0.29852,0.07 0.32149,-0.203 0.37041,-0.403 0.0589,-0.243 0.11182,-0.484 0.17072,-0.741 2.46206,0.57 4.89316,1.135 7.35721,1.707 -0.07188,0.303 -0.13877,0.592 -0.20267,0.88 -0.03295,0.162 -0.02696,0.32 0.17073,0.37 0.21365,0.054 0.29353,-0.083 0.33446,-0.261 0.0599,-0.27 0.1228,-0.538 0.19668,-0.849 0.32049,0.203 0.60204,0.377 0.90455,0.564 z m -0.36741,-2.692 v 0 c 0.30052,0.177 0.60004,0.357 0.90156,0.532 0.34744,0.201 0.36541,0.319 0.08786,0.686 -0.28055,-0.188 -0.5621,-0.38 -0.84565,-0.57 -0.33446,-0.228 -0.33446,-0.228 -0.14377,-0.648 z m -9.93308,-0.702 v 0 c 0.42532,-0.059 0.83167,-0.118 1.33886,-0.188 -0.1278,0.258 -0.18071,0.543 -0.3115,0.587 -0.3165,0.1 -0.67293,0.087 -1.03734,0.123 0.005,-0.192 0.006,-0.348 0.01,-0.522 z m 1.47564,-1.255 v 0 c 0.02396,0.021 0.04692,0.043 0.07188,0.069 -0.08786,0.154 -0.14676,0.416 -0.26957,0.451 -0.39736,0.112 -0.81968,0.139 -1.23103,0.2 -0.0609,-0.427 -0.01597,-0.594 0.17872,-0.617 0.41533,-0.049 0.83266,-0.071 1.25,-0.103 z m 7.53093,3.404 v 0 c -2.44808,-0.571 -4.87819,-1.134 -7.32526,-1.701 0.04892,-0.208 0.09384,-0.399 0.14377,-0.61 2.44408,0.567 4.87319,1.131 7.32126,1.697 -0.04692,0.209 -0.09185,0.403 -0.13977,0.614 z m -6.39276,-5.73 v 0 c 2.45706,0.571 4.88617,1.133 7.32127,1.696 -0.04892,0.21 -0.09485,0.401 -0.13778,0.596 -2.45107,-0.568 -4.88517,-1.133 -7.32127,-1.699 0.04893,-0.206 0.09086,-0.389 0.13778,-0.593 z m 6.9269,3.43 v 0 c -2.44708,-0.568 -4.87818,-1.132 -7.32426,-1.7 0.04593,-0.203 0.09285,-0.392 0.13578,-0.589 2.45207,0.57 4.88517,1.134 7.32327,1.699 -0.04593,0.204 -0.08886,0.389 -0.13479,0.59 z m -0.27056,1.137 v 0 c -2.46106,-0.57 -4.89117,-1.133 -7.31229,-1.695 0.04992,-0.218 0.09585,-0.408 0.13878,-0.6 2.45008,0.568 4.87119,1.128 7.31328,1.693 -0.04792,0.209 -0.09085,0.398 -0.13977,0.602"
           style="fill:#ffffff;fill-opacity:1;fill-rule:evenodd;stroke:none"
           id="path9112" />
        <path
           d="m 58.34811,138.6356 h -10e-4 c -0.32947,0.119 -0.53514,0.261 -0.63199,0.461 -0.09585,0.201 -0.07787,0.448 0.03694,0.776 0.40236,1.145 0.8117,2.289 1.21405,3.435 0.08188,0.228 0.11981,0.35 0.09485,0.433 -0.09085,0.302 -1.29392,0.811 -1.41872,1.409 -0.04493,0.213 0.01398,0.442 0.17272,0.71 0.37939,0.643 0.75279,1.263 1.12619,1.881 l 0.80871,1.348 v -0.001 c 0.1857,0.311 0.37041,0.622 0.54313,0.906 0.11082,0.187 0.2496,0.337 0.41633,0.443 0.16374,0.106 0.35344,0.169 0.56809,0.187 0.21865,0.018 0.44529,0.032 0.67192,0.047 0.32149,0.02 0.64397,0.04 0.95647,0.072 h 10e-4 c 0.1857,0.018 0.33346,-0.012 0.45926,-0.086 0.12281,-0.072 0.22065,-0.187 0.3115,-0.342 0.13679,-0.234 0.27956,-0.466 0.42832,-0.691 0.37041,-0.558 0.76577,-1.12 1.42271,-1.356 0.66095,-0.236 1.32289,-0.042 1.96187,0.157 0.26757,0.084 0.52815,0.176 0.78473,0.268 0.15476,0.057 0.29254,0.084 0.42533,0.067 0.13678,-0.017 0.26458,-0.081 0.39137,-0.207 h 10e-4 c 0.23861,-0.238 0.49021,-0.47 0.74081,-0.7 0.15675,-0.144 0.31349,-0.289 0.47224,-0.44 0.15575,-0.15 0.26458,-0.319 0.32648,-0.504 0.0629,-0.188 0.07988,-0.391 0.04892,-0.605 -0.14277,-1.012 -0.28954,-2.024 -0.43431,-3.036 l -0.2446,-1.708 c -0.04593,-0.321 -0.14577,-0.543 -0.31849,-0.686 -0.49221,-0.408 -1.6863,-0.011 -1.98482,-0.222 h -10e-4 c -0.07887,-0.056 -0.13578,-0.151 -0.18171,-0.283 -0.40435,-1.167 -0.81969,-2.33 -1.23202,-3.494 -0.12481,-0.349 -0.26757,-0.561 -0.47125,-0.658 -0.20367,-0.098 -0.45827,-0.075 -0.80271,0.047 -2.22044,0.791 -4.44188,1.582 -6.66232,2.372"
           style="fill:#ffffff;fill-opacity:1;fill-rule:evenodd;stroke:none"
           id="path9114" />
        <path
           d="m 46.56,138.0256 h 0.57008 c 0.02097,-0.372 0.16574,-0.689 0.43431,-0.947 0.26957,-0.259 0.58306,-0.389 0.94149,-0.389 0.38538,0 0.70986,0.145 0.97544,0.434 0.26557,0.288 0.39836,0.647 0.39836,1.071 0,0.429 -0.13279,0.776 -0.39836,1.044 -0.26558,0.265 -0.61302,0.398 -1.04233,0.398 -0.24162,0 -0.46226,-0.055 -0.65795,-0.164 -0.19669,-0.108 -0.37041,-0.273 -0.52116,-0.496 l -0.43331,0.2 0.50619,2.835 h 2.57687 v -0.563 h -2.09664 l -0.28654,-1.596 c 0.16374,0.118 0.32548,0.204 0.48722,0.258 0.16274,0.053 0.33646,0.08 0.52316,0.08 0.55811,0 1.01437,-0.189 1.3708,-0.566 0.35444,-0.377 0.53315,-0.859 0.53315,-1.446 0,-0.556 -0.1897,-1.028 -0.57109,-1.418 -0.37939,-0.391 -0.84165,-0.587 -1.38278,-0.587 -0.51517,0 -0.95547,0.173 -1.31889,0.521 -0.36242,0.347 -0.56609,0.792 -0.60802,1.331 z m 6.45166,0.75 c 0.39237,0 0.72184,0.136 0.98642,0.409 0.26557,0.273 0.39836,0.608 0.39836,1.006 0,0.402 -0.13578,0.743 -0.40635,1.02 -0.27057,0.276 -0.59804,0.414 -0.98542,0.414 -0.3734,0 -0.6869,-0.134 -0.9395,-0.401 -0.25259,-0.267 -0.37839,-0.609 -0.37839,-1.025 0,-0.415 0.1238,-0.755 0.3744,-1.022 0.2496,-0.267 0.56709,-0.401 0.95048,-0.401 z m -0.13279,-2.488 h -0.70188 l 1.33287,2.074 c -0.1228,-0.028 -0.23463,-0.049 -0.33746,-0.064 -0.10184,-0.015 -0.19469,-0.021 -0.27756,-0.021 -0.51916,0 -0.94748,0.181 -1.28593,0.542 -0.33946,0.362 -0.50819,0.817 -0.50819,1.364 0,0.563 0.18371,1.029 0.55012,1.397 0.36441,0.369 0.83067,0.553 1.39676,0.553 0.55411,0 1.01537,-0.182 1.38179,-0.545 0.3684,-0.362 0.55311,-0.809 0.55311,-1.338 0,-0.459 -0.23662,-1.052 -0.70786,-1.778 -0.04493,-0.069 -0.07888,-0.123 -0.10184,-0.161 z m 3.08406,4.041 h -0.55212 l 0.59904,1.683 h 0.5661 l -0.61302,-1.683"
           style="fill:#ffffff;fill-opacity:1;fill-rule:nonzero;stroke:none"
           id="path9116" />
      </g>
    </g>
  </g>
</svg>
