<?xml version="1.0" encoding="UTF-8" standalone="no"?>
<!-- Created with Inkscape (http://www.inkscape.org/) -->

<svg
   version="1.1"
   id="svg2"
   width="559.37012"
   height="793.70081"
   viewBox="0 0 559.37012 793.70081"
   sodipodi:docname="rapid.svg"
   inkscape:export-filename="rapid.png"
   inkscape:export-xdpi="10.983783"
   inkscape:export-ydpi="10.983783"
   inkscape:version="1.2.1 (9c6d41e410, 2022-07-14)"
   xmlns:inkscape="http://www.inkscape.org/namespaces/inkscape"
   xmlns:sodipodi="http://sodipodi.sourceforge.net/DTD/sodipodi-0.dtd"
   xmlns="http://www.w3.org/2000/svg"
   xmlns:svg="http://www.w3.org/2000/svg">
  <defs
     id="defs6">
    <clipPath
       clipPathUnits="userSpaceOnUse"
       id="clipPath8262">
      <path
         d="m 47.52,181.9956 h 23.04 v 19.92 H 47.52 Z"
         id="path8260" />
    </clipPath>
  </defs>
  <sodipodi:namedview
     id="namedview4"
     pagecolor="#000000"
     bordercolor="#cccccc"
     borderopacity="1"
     inkscape:showpageshadow="0"
     inkscape:pageopacity="0"
     inkscape:pagecheckerboard="0"
     inkscape:deskcolor="#d1d1d1"
     showgrid="false"
     inkscape:zoom="0.84100809"
     inkscape:cx="233.05364"
     inkscape:cy="373.95597"
     inkscape:window-width="1920"
     inkscape:window-height="1002"
     inkscape:window-x="0"
     inkscape:window-y="0"
     inkscape:window-maximized="1"
     inkscape:current-layer="g8" />
  <g
     id="g8"
     inkscape:groupmode="layer"
     inkscape:label="43033251 co e_cso e 5d_5t itdeenesfr"
     transform="matrix(1.3333333,0,0,-1.3333333,0,793.7008)">
    <g
       id="g8256"
       transform="matrix(16.741215,0,0,16.741215,-777.70678,-2912.8977)"
       style="fill:#ffffff">
      <g
         id="g8258"
         clip-path="url(#clipPath8262)"
         style="fill:#ffffff">
        <path
           d="m 61.60445,187.5154 c -0.5199,-0.1384 -0.73628,-0.0189 -0.87852,0.5 -0.25745,0.9283 -0.5169,1.8566 -0.76734,2.7848 -0.06311,0.2371 -0.18632,0.3546 -0.44477,0.3466 -0.24142,-0.007 -0.47883,0.02 -0.72125,0.0299 -0.47984,0.0199 -0.67818,0.2112 -0.71023,0.6783 -0.08615,1.244 -0.17531,2.485 -0.26246,3.726 -0.02104,0.3148 0.08815,0.5807 0.33257,0.7829 0.33759,0.2739 0.6862,0.5368 1.01777,0.8167 0.18733,0.1624 0.35462,0.1504 0.572,0.0528 0.39869,-0.1753 0.80239,-0.3456 1.21911,-0.4641 0.67918,-0.1963 1.28824,-0.0279 1.76807,0.486 0.29151,0.3108 0.54895,0.6554 0.79338,1.004 0.14425,0.2121 0.29852,0.3048 0.55697,0.2589 0.42173,-0.0737 0.84647,-0.1175 1.27221,-0.1842 0.31254,-0.0518 0.54194,-0.2261 0.68218,-0.508 0.20135,-0.3924 0.39969,-0.7878 0.60005,-1.1822 0.36863,-0.7231 0.74128,-1.4432 1.10491,-2.1693 0.20436,-0.4054 0.12622,-0.6634 -0.25444,-0.9134 -0.10518,-0.0687 -0.21037,-0.1344 -0.31455,-0.2011 h -1.31829 c -0.04607,0 -0.09215,-0.002 -0.13523,-0.006 l -0.53894,1.974 c -0.03906,0.1445 -0.1182,0.3287 0.09818,0.3855 0.20535,0.0588 0.22238,-0.1365 0.26345,-0.2739 0.04508,-0.1464 0.08315,-0.2968 0.13523,-0.4801 l 0.18834,-0.8416 c 0.11619,-0.8695 0.28349,-0.7311 0.28349,-0.7311 0.25845,0.1644 0.5189,0.3247 0.76833,0.5 0.11821,0.0817 0.02805,0.1823 -0.10017,0.4552 -0.12723,0.2739 -0.26647,0.5717 -0.32958,0.6962 0,0 -0.95967,1.9442 -1.10191,2.1534 -0.07713,0.1135 -0.22239,0.2201 -0.35461,0.251 -0.33258,0.0756 -0.68019,0.0986 -1.01877,0.1573 -0.13123,0.0259 -0.19034,-0.0219 -0.26947,-0.1245 -0.25344,-0.3326 -0.50688,-0.6713 -0.80139,-0.9631 -0.48785,-0.4881 -1.09791,-0.6584 -1.76607,-0.4881 -0.41272,0.1006 -0.81141,0.268 -1.2091,0.4243 -0.11219,0.0429 -0.17931,0.0578 -0.27648,-0.0288 -0.26246,-0.2212 -0.54495,-0.4213 -0.79438,-0.6544 -0.09717,-0.0877 -0.19133,-0.247 -0.18732,-0.3715 0.03105,-0.6912 0.10117,-1.6763 0.14124,-2.0956 0.04208,-0.4193 0.11219,-1.1584 0.11219,-1.1584 0.03306,-0.2689 0.003,-0.4003 0.29652,-0.4073 0.25344,-0.006 0.50788,-0.0189 0.76533,-0.0279 l -0.20035,0.734 -0.19534,0.8128 c -0.0611,0.2251 -0.11319,0.4173 -0.16829,0.6105 -0.03606,0.1265 -0.03206,0.2441 0.12422,0.2829 0.14525,0.0358 0.20335,-0.0617 0.23941,-0.1763 0.0581,-0.2072 1.44551,-5.1792 1.44551,-5.1792 0.08615,-0.4412 0.08615,-0.4432 0.52291,-0.3237 l 1.61581,0.4432 v -0.8974 c -0.60005,-0.1643 -1.20009,-0.3306 -1.80013,-0.496"
           style="fill:#ffffff;fill-opacity:1;fill-rule:nonzero;stroke:none"
           id="path8264" />
        <path
           d="m 65.53327,186.388 h 3.63632 c 0.06511,0 0.1172,-0.0518 0.1172,-0.1146 v -0.3456 c 0,-0.0637 -0.05209,-0.1165 -0.1172,-0.1165 h -3.63632 c -0.06411,0 -0.1152,0.0528 -0.1152,0.1165 v 0.3456 c 0,0.0628 0.05109,0.1146 0.1152,0.1146 z m 0,1.0268 h 3.63632 c 0.06511,0 0.1172,-0.0518 0.1172,-0.1155 v -0.3466 c 0,-0.0638 -0.05209,-0.1145 -0.1172,-0.1145 h -3.63632 c -0.06411,0 -0.1152,0.0507 -0.1152,0.1145 v 0.3466 c 0,0.0637 0.05109,0.1155 0.1152,0.1155 z m 3.31877,4.5209 h -3.00022 c -0.09115,0 -0.14625,-0.1793 -0.14625,-0.246 0,-0.0996 0.004,-0.3247 0.14625,-0.3247 h 0.82343 c 0.07814,-0.256 0.17531,-0.4921 0.17531,-0.754 0,-0.257 -0.09717,-0.512 -0.16629,-0.753 h -1.6669 c -0.10418,0 -0.1793,-0.0846 -0.1793,-0.1783 v -4.1065 c 0.002,-0.0866 0.06311,-0.1783 0.1793,-0.1783 h 4.67111 c 0.08215,0 0.17932,0.0658 0.17932,0.1783 v 4.1065 c 10e-4,0.0927 -0.07313,0.1763 -0.17932,0.1783 h -1.66589 c -0.06811,0.241 -0.16829,0.497 -0.16829,0.753 0,0.2629 0.10018,0.504 0.17932,0.754 h 0.81842 c 0.13222,0 0.14625,0.233 0.14625,0.3247 0,0.0667 -0.0551,0.246 -0.14625,0.246 z m 0,0.5777 v 0 c 0.43475,0 0.72826,-0.4343 0.72826,-0.8237 0,-0.4373 -0.22038,-0.9014 -0.72826,-0.9014 h -0.39269 c -0.02003,-0.0578 -0.02404,-0.1165 -0.02404,-0.1773 0,-0.0598 0.008,-0.1165 0.02605,-0.1753 h 1.33932 c 0.34159,0 0.64813,-0.246 0.64813,-0.5936 v -4.4292 c 0,-0.3466 -0.30854,-0.5956 -0.64813,-0.5956 h -4.89651 c -0.34159,0 -0.64812,0.248 -0.64812,0.5956 v 4.4292 c 0,0.3446 0.30753,0.5936 0.64812,0.5936 h 1.34334 c 0.01403,0.0558 0.02104,0.1185 0.02104,0.1753 0,0.0597 -0.004,0.1205 -0.02104,0.1773 h -0.39569 c -0.5179,0 -0.72626,0.4561 -0.72626,0.9014 0,0.3884 0.29251,0.8237 0.72626,0.8237 h 3.00022"
           style="fill:#ffffff;fill-opacity:1;fill-rule:evenodd;stroke:none"
           id="path8266" />
        <path
           d="m 48.00985,190.5373 v -0.0409 c 0,-0.3226 0.10017,-0.5896 0.30152,-0.8027 0.20135,-0.2112 0.44978,-0.3178 0.7483,-0.3178 0.32056,0 0.58602,0.1046 0.79438,0.3168 0.20836,0.2121 0.31254,0.4811 0.31254,0.8107 0,0.3735 -0.11119,0.6584 -0.33057,0.8516 -0.22039,0.1932 -0.54395,0.2888 -0.96969,0.2888 -0.0591,0 -0.10718,0 -0.13823,-9e-4 -0.03407,-0.001 -0.06111,-0.003 -0.08716,-0.005 v 0.4063 c 0.02605,-0.002 0.05209,-0.005 0.08114,-0.006 0.02905,-10e-4 0.07313,-10e-4 0.13223,-10e-4 0.32357,0 0.56599,0.0667 0.73027,0.1992 0.16228,0.1334 0.24443,0.3326 0.24443,0.5956 0,0.2291 -0.07113,0.4173 -0.21037,0.5647 -0.13924,0.1484 -0.31455,0.2211 -0.52491,0.2211 -0.24042,0 -0.42975,-0.0717 -0.56699,-0.2161 -0.13824,-0.1444 -0.20836,-0.3466 -0.21337,-0.6066 h -0.44878 c 0.02104,0.3805 0.14225,0.6833 0.36764,0.9064 0.2254,0.2231 0.51991,0.3356 0.88454,0.3356 0.33458,0 0.62108,-0.1185 0.85549,-0.3575 0.2354,-0.2381 0.35261,-0.5209 0.35261,-0.8476 0,-0.1943 -0.03807,-0.3636 -0.1122,-0.508 -0.07613,-0.1444 -0.19734,-0.2759 -0.36363,-0.3974 0.26746,-0.1414 0.46882,-0.3257 0.60405,-0.5558 0.13423,-0.229 0.20235,-0.5029 0.20235,-0.8207 0,-0.4492 -0.14826,-0.8276 -0.44678,-1.1344 -0.29852,-0.3068 -0.67216,-0.4592 -1.12194,-0.4592 -0.48084,0 -0.85949,0.1405 -1.13798,0.4223 -0.27949,0.2819 -0.42273,0.6674 -0.42874,1.1584 h 0.48985 z m 3.81362,0.1305 c 0,-0.4054 0.10518,-0.7211 0.31455,-0.9462 0.20835,-0.2261 0.49886,-0.3387 0.8695,-0.3387 0.37065,0 0.65915,0.1116 0.86851,0.3347 0.20937,0.2231 0.31355,0.5358 0.31355,0.9362 v 1.6853 c 0,0.3974 -0.10418,0.7081 -0.31555,0.9342 -0.21037,0.2241 -0.49887,0.3366 -0.86651,0.3366 -0.37064,0 -0.66115,-0.1135 -0.8695,-0.3406 -0.20937,-0.2271 -0.31455,-0.5438 -0.31455,-0.9512 z m -0.47583,0.1045 v 1.4482 c 0,0.3158 0.02304,0.5528 0.06812,0.7132 0.04508,0.1603 0.11821,0.3097 0.22239,0.4482 0.16228,0.2121 0.36062,0.3764 0.59603,0.49 0.23441,0.1135 0.49286,0.1713 0.77435,0.1713 0.51589,0 0.92059,-0.1593 1.21811,-0.4771 0.29752,-0.3167 0.44577,-0.7569 0.44577,-1.3177 v -1.498 c 0,-0.2629 -0.02203,-0.481 -0.06411,-0.6543 -0.04307,-0.1743 -0.11119,-0.3267 -0.20535,-0.4582 -0.15628,-0.2171 -0.35462,-0.3845 -0.59804,-0.504 -0.24242,-0.1175 -0.50788,-0.1773 -0.79638,-0.1773 -0.28149,0 -0.53894,0.0558 -0.77235,0.1694 -0.23541,0.1135 -0.43575,0.2768 -0.60505,0.491 -0.09917,0.1245 -0.17029,0.2789 -0.21537,0.4581 -0.04508,0.1803 -0.06812,0.4124 -0.06812,0.6972 z m 4.17525,1.7311 h -0.47582 l 0.51589,1.4362 h 0.48585 l -0.52592,-1.4362"
           style="fill:#ffffff;fill-opacity:1;fill-rule:nonzero;stroke:none"
           id="path8268" />
        <path
           d="m 51.23645,196.6667 h -0.51289 v 4.467 h -0.85649 v 0.4194 h 1.36938 z m 4.23636,1.3695 0.02003,2.9531 -1.82918,-2.9531 z m 0.4628,-1.3695 h -0.47583 v 0.9432 h -2.302 v 0.4263 l 2.22687,3.5169 h 0.55096 v -3.5169 h 0.53292 v -0.4263 h -0.53292 z m 1.39041,3.4501 h -0.47683 l 0.5169,1.4363 h 0.48584 l -0.52591,-1.4363"
           style="fill:#ffffff;fill-opacity:1;fill-rule:nonzero;stroke:none"
           id="path8270" />
        <path
           d="m 53.69572,183.3651 0.01903,2.9531 -1.82918,-2.9531 z m 0.4618,-1.3695 h -0.47583 v 0.9432 H 51.3797 v 0.4263 l 2.22686,3.5169 h 0.55096 v -3.5169 h 0.53393 v -0.4263 h -0.53393 z m 3.44298,1.3695 0.02003,2.9531 -1.83017,-2.9531 z m 0.4618,-1.3695 h -0.47582 v 0.9432 h -2.302 v 0.4263 l 2.22786,3.5169 h 0.54996 v -3.5169 h 0.53393 v -0.4263 H 58.0623 Z m 1.39041,3.4501 h -0.47482 l 0.5159,1.4363 h 0.48584 l -0.52692,-1.4363"
           style="fill:#ffffff;fill-opacity:1;fill-rule:nonzero;stroke:none"
           id="path8272" />
      </g>
    </g>
  </g>
</svg>
