<?xml version="1.0" encoding="UTF-8" standalone="no"?>
<!-- Created with Inkscape (http://www.inkscape.org/) -->

<svg
   version="1.1"
   id="svg2"
   width="535.05005"
   height="749.03589"
   viewBox="0 0 535.05005 749.03589"
   sodipodi:docname="steam-off.svg"
   inkscape:version="1.2.1 (9c6d41e410, 2022-07-14)"
   xmlns:inkscape="http://www.inkscape.org/namespaces/inkscape"
   xmlns:sodipodi="http://sodipodi.sourceforge.net/DTD/sodipodi-0.dtd"
   xmlns="http://www.w3.org/2000/svg"
   xmlns:svg="http://www.w3.org/2000/svg">
  <defs
     id="defs6">
    <clipPath
       clipPathUnits="userSpaceOnUse"
       id="clipPath352">
      <path
         d="m 57.65965,478.1556 h 13.46958 v 13.52823 H 57.65965 Z"
         id="path350" />
    </clipPath>
  </defs>
  <sodipodi:namedview
     id="namedview4"
     pagecolor="#000000"
     bordercolor="#cccccc"
     borderopacity="1"
     inkscape:showpageshadow="0"
     inkscape:pageopacity="1"
     inkscape:pagecheckerboard="0"
     inkscape:deskcolor="#d1d1d1"
     showgrid="false"
     inkscape:zoom="0.8911573"
     inkscape:cx="125.67927"
     inkscape:cy="401.16374"
     inkscape:window-width="1920"
     inkscape:window-height="1002"
     inkscape:window-x="0"
     inkscape:window-y="0"
     inkscape:window-maximized="1"
     inkscape:current-layer="g8" />
  <g
     id="g8"
     inkscape:groupmode="layer"
     inkscape:label="43033251 co e_cso e 5d_5t itdeenesfr"
     transform="matrix(1.3333333,0,0,-1.3333333,-24.32,760.01664)">
    <g
       id="g346"
       transform="matrix(27.196013,0,0,27.196013,-1532.3883,-12898.759)"
       style="fill:#ffffff;opacity:0.5">
      <g
         id="g348"
         clip-path="url(#clipPath352)"
         style="fill:#ffffff">
        <path
           d="m 68.00321,487.3169 c 0.91077,-0.2147 1.70819,-0.9525 1.99951,-1.7867 0.23764,-0.6781 0.11931,-1.3841 -0.37883,-1.9379 0.96546,-0.7725 0.61746,-2.1506 -0.17897,-2.9063 -0.56873,-0.5389 -1.39995,-0.8282 -2.30674,-0.6363 -0.31022,-0.534 -0.83719,-0.7775 -1.41984,-0.8064 -0.74571,-0.0358 -1.52225,0.2983 -2.03033,0.8004 -0.44544,0.4415 -0.70495,1.0202 -0.57768,1.6476 -0.36888,0.0755 -0.75367,0.2147 -1.0957,0.4056 -0.89088,0.4932 -1.57495,1.4 -1.05394,2.3873 -0.6284,0.2277 -0.98634,0.6533 -1.12951,1.1554 -0.32315,1.1275 0.50311,2.5185 1.62764,2.956 0.59956,0.2326 1.28164,0.2177 1.94482,-0.2128 0.26647,0.4166 0.60652,0.686 0.98236,0.8372 0.83421,0.3351 1.77778,0.0547 2.4718,-0.4266 0.55281,-0.3847 0.98832,-0.9266 1.14541,-1.4765 z m -0.41462,-0.7735 c -0.21675,0.0149 -0.39274,0.1779 -0.40666,0.3878 -0.02983,0.4086 -0.38081,0.868 -0.85111,1.1961 -0.43152,0.3003 -1.06587,0.5419 -1.59782,0.3301 -0.29928,-0.1223 -0.57171,-0.3977 -0.76162,-0.8859 l -0.11036,-0.1591 c -0.17798,-0.1581 -0.45738,-0.1511 -0.6274,0.0159 -0.50211,0.4951 -1.01218,0.5647 -1.43475,0.4017 -0.72086,-0.2824 -1.3224,-1.2469 -1.11161,-1.9757 0.09843,-0.347 0.42257,-0.6274 1.06189,-0.698 0.09148,-0.009 0.18096,-0.0467 0.25454,-0.1113 0.17698,-0.1591 0.18394,-0.4216 0.01591,-0.5876 -0.67413,-0.6642 -0.25653,-1.2588 0.44444,-1.6456 0.4017,-0.2227 0.86304,-0.355 1.22695,-0.3539 0.32811,0.01 0.56575,-0.3212 0.40667,-0.6066 -0.25554,-0.4593 -0.09943,-0.9087 0.23166,-1.2359 0.3301,-0.3261 0.85608,-0.5667 1.34428,-0.5428 0.34601,0.0149 0.65523,0.1928 0.78349,0.5906 0.06563,0.2426 0.34701,0.3758 0.59558,0.2803 0.68407,-0.2654 1.33434,-0.0387 1.76387,0.3659 0.5558,0.528 0.82029,1.4597 -0.07259,1.8266 -0.32214,0.1133 -0.39473,0.5249 -0.10738,0.7238 0.51504,0.354 0.71986,0.8511 0.52399,1.4139 -0.21278,0.6105 -0.87497,1.216 -1.57197,1.2697"
           style="fill:#ffffff;fill-opacity:1;fill-rule:evenodd;stroke:none"
           id="path354" />
        <path
           d="m 60.55999,482.4678 c 0.23664,-0.3162 0.51305,-0.5409 0.83818,-0.7646 l -3.2195,-2.7452 c -0.12826,-0.1154 -0.32214,-0.1213 -0.47328,0.01 -0.14118,0.1253 -0.1392,0.3062 -0.006,0.4434 l 2.86056,3.0565"
           style="fill:#ffffff;fill-opacity:1;fill-rule:evenodd;stroke:none"
           id="path356" />
        <path
           d="m 59.19284,478.7332 3.2553,2.104 c 0.08551,-0.3302 0.22868,-0.6254 0.43151,-0.9028 l -3.35869,-1.747 c -0.14815,-0.0686 -0.33905,-0.0249 -0.43152,0.1134 -0.09446,0.1481 -0.05171,0.338 0.1034,0.4324"
           style="fill:#ffffff;fill-opacity:1;fill-rule:evenodd;stroke:none"
           id="path358" />
        <path
           d="m 68.95773,490.4131 c 0.70793,-0.0696 1.38404,-0.5438 1.6873,-1.1434 0.24757,-0.4872 0.22769,-1.034 -0.09346,-1.5033 0.80835,-0.4853 0.68207,-1.5611 0.15411,-2.2163 -0.19787,-0.2436 -0.48223,0.2863 -0.51604,0.4335 0.34999,0.4564 0.44047,1.1643 -0.25752,1.3453 -0.25354,0.0507 -0.35197,0.3559 -0.15212,0.5359 0.35396,0.3211 0.45936,0.7169 0.25354,1.1235 -0.22173,0.4385 -0.7825,0.8283 -1.31345,0.7965 -0.16505,-0.012 -0.31419,0.0934 -0.347,0.2495 -0.06165,0.3073 -0.37286,0.6175 -0.76262,0.8163 -0.35596,0.182 -0.85807,0.2993 -1.23988,0.0825 -0.21476,-0.1222 -0.39274,-0.3589 -0.4872,-0.7476 l -0.0686,-0.1323 c -0.11733,-0.1372 -0.33011,-0.1611 -0.47427,-0.0547 -0.42954,0.3232 -0.82228,0.3232 -1.12455,0.1551 -0.34501,-0.1919 -0.61944,-0.6085 -0.69599,-1.0211 -0.32215,-0.0557 -0.96148,-0.7248 -0.59856,0.344 0.17002,0.5011 0.51006,0.9704 0.96147,1.221 0.42953,0.2396 0.94656,0.2983 1.49043,0.0418 0.16008,0.344 0.38976,0.5816 0.65921,0.7357 0.59757,0.3401 1.33831,0.2267 1.91102,-0.0656 0.45538,-0.2336 0.83819,-0.5976 1.01418,-0.9963"
           style="fill:#ffffff;fill-opacity:1;fill-rule:evenodd;stroke:none"
           id="path360" />
      </g>
    </g>
  </g>
</svg>
