<?xml version="1.0" encoding="UTF-8" standalone="no"?>
<!-- Created with Inkscape (http://www.inkscape.org/) -->

<svg
   version="1.1"
   id="svg2"
   width="487.67999"
   height="745.92004"
   viewBox="0 0 487.68 745.92005"
   sodipodi:docname="synthetic-and-coloured.svg"
   inkscape:version="1.2.1 (9c6d41e410, 2022-07-14)"
   xmlns:inkscape="http://www.inkscape.org/namespaces/inkscape"
   xmlns:sodipodi="http://sodipodi.sourceforge.net/DTD/sodipodi-0.dtd"
   xmlns="http://www.w3.org/2000/svg"
   xmlns:svg="http://www.w3.org/2000/svg">
  <defs
     id="defs6">
    <clipPath
       clipPathUnits="userSpaceOnUse"
       id="clipPath6436">
      <path
         d="m 52.13965,349.2756 h 12.92074 v 13.80963 H 52.13965 Z"
         id="path6434" />
    </clipPath>
    <clipPath
       clipPathUnits="userSpaceOnUse"
       id="clipPath6446">
      <path
         d="M 52.08,349.2756 H 66 v 13.92001 H 52.08 Z"
         id="path6444" />
    </clipPath>
  </defs>
  <sodipodi:namedview
     id="namedview4"
     pagecolor="#000000"
     bordercolor="#cccccc"
     borderopacity="1"
     inkscape:showpageshadow="0"
     inkscape:pageopacity="1"
     inkscape:pagecheckerboard="0"
     inkscape:deskcolor="#d1d1d1"
     showgrid="false"
     inkscape:zoom="0.89487983"
     inkscape:cx="109.51191"
     inkscape:cy="419.60941"
     inkscape:window-width="1920"
     inkscape:window-height="1002"
     inkscape:window-x="0"
     inkscape:window-y="0"
     inkscape:window-maximized="1"
     inkscape:current-layer="g8" />
  <g
     id="g8"
     inkscape:groupmode="layer"
     inkscape:label="43033251 co e_cso e 5d_5t itdeenesfr"
     transform="matrix(1.3333333,0,0,-1.3333333,-48.639999,756.90078)">
    <g
       id="g10573"
       transform="matrix(24.713581,0,0,24.713581,-1228.8563,-8514.538)"
       style="fill:#ffffff">
      <g
         id="g6430"
         style="fill:#ffffff">
        <g
           id="g6432"
           clip-path="url(#clipPath6436)"
           style="fill:#ffffff">
          <path
             d="m 57.27315,361.9259 c -0.005,-0.0836 -0.0099,-0.1452 -0.0099,-0.2098 -0.002,-1.2707 9.9e-4,-2.5404 -0.006,-3.8131 0,-0.1064 -0.0338,-0.2277 -0.08948,-0.3172 -1.17127,-1.8345 -2.3485,-3.6699 -3.52176,-5.5054 -0.23067,-0.3579 -0.47129,-0.7109 -0.6791,-1.0817 -0.30823,-0.5538 -0.06463,-0.9526 0.56177,-0.9526 3.38057,0 6.76214,0 10.14271,0 0.04872,0 0.09943,-0.003 0.14815,10e-4 0.30127,0.0249 0.49515,0.2019 0.45737,0.4982 -0.02883,0.2287 -0.11236,0.4703 -0.23465,0.6642 -1.33831,2.1108 -2.68855,4.2127 -4.02885,6.3226 -0.07954,0.1263 -0.12726,0.2993 -0.12826,0.4514 -0.01193,1.229 -0.008,2.4579 -0.007,3.6868 0,0.0835 0,0.1651 0,0.2556 -0.87994,0 -1.73204,0 -2.60503,0 z m -0.79543,0.007 v 0 c -0.07158,0 -0.13423,-0.002 -0.19686,0 -0.31122,0.0179 -0.55183,0.2546 -0.56178,0.5578 -0.01093,0.2983 0.21875,0.5558 0.52797,0.5896 0.05071,0.006 0.09943,0.005 0.14914,0.005 1.44967,10e-4 2.89835,0.002 4.34602,-0.004 0.13026,-10e-4 0.27244,-0.0248 0.38778,-0.0815 0.22371,-0.1104 0.33408,-0.3828 0.27939,-0.6145 -0.06065,-0.2515 -0.26945,-0.4315 -0.52796,-0.4524 -0.06861,-0.004 -0.13821,-0.007 -0.22173,-0.01 -0.003,-0.0786 -0.0099,-0.1482 -0.0099,-0.2168 0,-1.1871 -0.002,-2.3723 0.006,-3.5575 0,-0.1203 0.03679,-0.2556 0.10042,-0.355 1.31545,-2.0641 2.63486,-4.1263 3.95627,-6.1854 0.26945,-0.4176 0.41859,-0.8581 0.31618,-1.3522 -0.11533,-0.5598 -0.56475,-0.9337 -1.14343,-0.9755 -0.06264,-0.004 -0.12627,-0.004 -0.1909,-0.004 -3.42333,0 -6.84566,-0.002 -10.26799,0 -0.69799,0 -1.20806,0.3778 -1.32041,0.9992 -0.07855,0.4445 0.02187,0.8591 0.26647,1.2389 0.99925,1.5581 1.99752,3.1191 2.99578,4.6811 0.34402,0.5359 0.68904,1.0748 1.02809,1.6157 0.04673,0.0746 0.09148,0.1661 0.09148,0.2496 0.005,1.2498 0.003,2.5006 0.003,3.7514 0,0.0328 -0.009,0.0676 -0.01293,0.1203"
             style="fill:#ffffff;fill-opacity:1;fill-rule:evenodd;stroke:none"
             id="path6438" />
        </g>
      </g>
      <g
         id="g6440"
         style="fill:#ffffff">
        <g
           id="g6442"
           clip-path="url(#clipPath6446)"
           style="fill:#ffffff">
          <path
             d="m 56.37034,352.8182 -0.33408,0.002 c -0.22073,0 -0.44544,0 -0.66617,-0.002 -0.09148,0 -0.18295,0.01 -0.25354,0.0517 -0.08054,0.0477 -0.13224,0.1273 -0.13026,0.2615 0.003,0.1243 0.05569,0.1989 0.13722,0.2426 0.0686,0.0368 0.1551,0.0467 0.23962,0.0467 h 2.05121 c 0.09147,0 0.17798,-0.0169 0.24261,-0.0616 h -0.001 c 0.07457,-0.0487 0.12031,-0.1292 0.11634,-0.2516 -0.006,-0.1232 -0.05867,-0.1968 -0.13722,-0.2416 -0.0686,-0.0377 -0.15411,-0.0477 -0.23962,-0.0477 -0.22769,0.002 -0.45538,0.002 -0.68208,0.002 l -0.34303,-0.002"
             style="fill:#ffffff;fill-opacity:1;fill-rule:nonzero;stroke:none"
             id="path6448" />
          <path
             d="m 56.92316,353.8473 -0.33507,10e-4 c -0.22073,0 -0.44445,0 -0.66617,-10e-4 h -9.9e-4 c -0.09247,0 -0.18196,0.01 -0.25255,0.0517 -0.08054,0.0477 -0.13125,0.1283 -0.13026,0.2585 v 0.002 c 0.004,0.1253 0.05668,0.1989 0.13821,0.2426 0.0696,0.0378 0.15411,0.0468 0.23763,0.0468 h 2.05221 c 0.09147,0 0.17897,-0.016 0.24161,-0.0607 0.07557,-0.0487 0.1213,-0.1293 0.11534,-0.2516 -0.005,-0.1242 -0.05767,-0.1978 -0.13522,-0.2416 -0.06861,-0.0378 -0.15412,-0.0477 -0.24062,-0.0477 -0.2267,10e-4 -0.45638,10e-4 -0.68109,10e-4 l -0.34303,-10e-4"
             style="fill:#ffffff;fill-opacity:1;fill-rule:nonzero;stroke:none"
             id="path6450" />
          <path
             d="m 57.53763,354.769 h -0.33408 c -0.22073,0 -0.44544,0 -0.66716,0 -0.09247,-0.001 -0.18295,0.009 -0.25355,0.0527 v -0.002 c -0.08053,0.0477 -0.13224,0.1283 -0.12925,0.2605 0.003,0.1253 0.05766,0.1999 0.13721,0.2436 0.06861,0.0378 0.15511,0.0467 0.23863,0.0467 h 2.0522 c 0.09148,0 0.17699,-0.0159 0.24162,-0.0606 0.07457,-0.0497 0.1203,-0.1302 0.11533,-0.2516 -0.005,-0.1253 -0.05866,-0.1978 -0.13622,-0.2416 -0.06959,-0.0387 -0.15411,-0.0487 -0.24061,-0.0487 v 0.001 c -0.2267,0 -0.45439,0 -0.68109,0 h -0.34303"
             style="fill:#ffffff;fill-opacity:1;fill-rule:nonzero;stroke:none"
             id="path6452" />
        </g>
      </g>
    </g>
  </g>
</svg>
