<?xml version="1.0" encoding="UTF-8" standalone="no"?>
<!-- Created with Inkscape (http://www.inkscape.org/) -->

<svg
   version="1.1"
   id="svg2"
   width="559.37012"
   height="793.70081"
   viewBox="0 0 559.37012 793.70081"
   sodipodi:docname="wool-hand-wash.svg"
   inkscape:export-filename="wool-hand-wash.png"
   inkscape:export-xdpi="10.983783"
   inkscape:export-ydpi="10.983783"
   inkscape:version="1.2.1 (9c6d41e410, 2022-07-14)"
   xmlns:inkscape="http://www.inkscape.org/namespaces/inkscape"
   xmlns:sodipodi="http://sodipodi.sourceforge.net/DTD/sodipodi-0.dtd"
   xmlns="http://www.w3.org/2000/svg"
   xmlns:svg="http://www.w3.org/2000/svg">
  <defs
     id="defs6">
    <clipPath
       clipPathUnits="userSpaceOnUse"
       id="clipPath6148">
      <path
         d="m 53.04,372.7956 h 11.42799 v 13.13449 H 53.04 Z"
         id="path6146" />
    </clipPath>
  </defs>
  <sodipodi:namedview
     id="namedview4"
     pagecolor="#000000"
     bordercolor="#cccccc"
     borderopacity="1"
     inkscape:showpageshadow="0"
     inkscape:pageopacity="0"
     inkscape:pagecheckerboard="0"
     inkscape:deskcolor="#d1d1d1"
     showgrid="false"
     inkscape:zoom="1.1893651"
     inkscape:cx="233.73815"
     inkscape:cy="462.0112"
     inkscape:window-width="1920"
     inkscape:window-height="1002"
     inkscape:window-x="0"
     inkscape:window-y="0"
     inkscape:window-maximized="1"
     inkscape:current-layer="g8" />
  <g
     id="g8"
     inkscape:groupmode="layer"
     inkscape:label="43033251 co e_cso e 5d_5t itdeenesfr"
     transform="matrix(1.3333333,0,0,-1.3333333,0,793.7008)">
    <g
       id="g6142"
       transform="matrix(34.587198,0,0,34.587198,-1822.3714,-12823.46)"
       style="fill:#ffffff">
      <g
         id="g6144"
         clip-path="url(#clipPath6148)"
         style="fill:#ffffff">
        <path
           d="m 63.13,379.9067 c -0.227,-1.2518 -0.453,-2.5046 -0.679,-3.7544 -0.464,-0.172 -0.95,-0.2625 -1.447,-0.2675 -0.731,-0.008 -1.709,0.1551 -2.392,0.3928 -0.676,0.2515 -1.658,0.4245 -2.388,0.4275 -0.588,0.004 -1.169,-0.0974 -1.736,-0.2595 -0.207,1.1524 -0.417,2.3067 -0.624,3.4611 -0.181,0.6582 -0.931,0.3888 -0.811,-0.1501 l 1.241,-6.961 H 62.7 l 1.241,6.961 c 0.12,0.5379 -0.632,0.8064 -0.811,0.1501 z m -4.773,-4.3271 v 0 c 0.765,-0.2665 1.837,-0.4484 2.653,-0.4405 0.437,0.004 0.871,0.0647 1.291,0.182 l -0.311,-1.7181 -6.988,9e-4 -0.379,2.105 c 0.519,0.1541 1.055,0.2545 1.598,0.2515 0.644,-0.003 1.543,-0.1591 2.136,-0.3808"
           style="fill:#ffffff;fill-opacity:1;fill-rule:nonzero;stroke:none"
           id="path6150" />
        <path
           d="m 55.227,378.8031 c -0.026,-0.2267 0.043,-0.4405 0.209,-0.6324 0.349,-0.4037 0.795,-0.3728 1.225,-0.1183 0.052,-0.1074 0.116,-0.1999 0.189,-0.2764 0.319,-0.3341 0.818,-0.3649 1.184,-0.0915 l 0.05,-0.0646 c 0.09,-0.1124 0.181,-0.2277 0.3,-0.3162 0.311,-0.2327 0.754,-0.1989 1.041,0.0537 h 0.002 c 0.988,0.874 1.979,1.7459 2.95,2.6388 0.405,0.3729 0.683,0.8352 0.958,1.2936 0.054,0.0885 0.107,0.177 0.167,0.2734 0.186,0.3073 0.392,0.6105 0.595,0.9108 l 0.118,0.173 v 0.001 c 0.015,0.0218 0.04499,0.0527 0.076,0.0845 0.134,0.1322 0.28,0.2774 0.075,0.4852 -0.009,0.01 -0.02,0.0199 -0.031,0.0288 h -10e-4 c -0.057,0.0458 -0.121,0.0706 -0.18501,0.0706 -0.06699,0 -0.13199,-0.0248 -0.18699,-0.0765 l -0.005,-0.003 -0.016,-0.0199 -0.003,-0.002 -0.049,-0.0576 c -0.186,-0.2128 -0.372,-0.4286 -0.528,-0.6652 -0.14,-0.2168 -0.269,-0.4335 -0.399,-0.6503 -0.15,-0.2535 -0.3,-0.5081 -0.462,-0.7467 l -10e-4,-10e-4 c -0.097,-0.1442 -0.201,-0.2873 -0.313,-0.4196 -0.104,-0.1233 -0.213,-0.2396 -0.329,-0.346 -0.68,-0.6224 -1.378,-1.2409 -2.075,-1.8583 l -0.692,-0.6145 c -0.049,-0.0438 -0.102,-0.0736 -0.155,-0.0885 -0.236,-0.0696 -0.421,0.1621 -0.349,0.3619 0.019,0.0537 0.06,0.1054 0.115,0.1551 0.524,0.4644 1.047,0.9297 1.569,1.396 l 0.495,0.4405 0.003,10e-4 0.026,0.0248 c 0.135,0.1263 0.287,0.2675 0.092,0.4853 -0.192,0.2177 -0.353,0.0785 -0.492,-0.0398 l -0.029,-0.0259 -0.002,-10e-4 -2.589,-2.3057 -0.005,-0.004 c -0.082,-0.0736 -0.173,-0.1352 -0.26,-0.1511 -0.077,-0.0129 -0.157,0.008 -0.233,0.0915 l -0.001,9e-4 v 0.002 c -0.215,0.2307 0.067,0.4554 0.238,0.6016 v 0.002 l 0.05,0.0427 h 10e-4 c 0.889,0.7945 1.506,1.3433 2.122,1.8921 0.055,0.0468 0.132,0.1184 0.174,0.1989 0.056,0.1104 0.059,0.2277 -0.079,0.3221 -0.084,0.0587 -0.17,0.0707 -0.25,0.0557 -0.092,-0.0159 -0.174,-0.0686 -0.24,-0.1292 -0.981,-0.874 -1.961,-1.748 -2.943,-2.619 h -10e-4 c -0.05,-0.0457 -0.102,-0.0745 -0.152,-0.0915 -0.058,-0.0178 -0.114,-0.0208 -0.163,-0.008 -0.049,0.0109 -0.093,0.0378 -0.129,0.0756 -0.027,0.0308 -0.049,0.0686 -0.064,0.1143 -0.02,0.0646 -0.02,0.1213 -0.003,0.173 0.019,0.0547 0.059,0.1054 0.113,0.1551 1,0.8849 1.994,1.7748 2.991,2.6627 h 0.001 c 0.082,0.0746 0.133,0.1492 0.149,0.2237 0.021,0.0875 -0.001,0.1681 -0.064,0.2426 l -0.001,0.003 -0.003,0.002 c -0.064,0.0726 -0.142,0.1054 -0.232,0.0975 -0.077,-0.007 -0.158,-0.0458 -0.241,-0.1144 V 382.1 l -0.011,-0.008 v -10e-4 l -2.394,-2.1318 c -0.05,-0.0437 -0.105,-0.0736 -0.159,-0.0895 -0.229,-0.0686 -0.424,0.1442 -0.347,0.36 0.019,0.0546 0.059,0.1063 0.114,0.1551 0.488,0.4325 1.051,0.9336 1.617,1.4397 0.525,0.4683 1.05,0.9376 1.656,1.4735 0.096,0.0835 0.145,0.174 0.157,0.2565 0.009,0.0627 -0.001,0.1224 -0.029,0.1741 -0.027,0.0507 -0.07,0.0914 -0.124,0.1183 v 0.002 c -0.078,0.0387 -0.183,0.0537 -0.301,0.0278 -0.339,-0.0736 -1.48,-0.4594 -1.663,-0.1591 v 0.002 c -0.021,0.0348 -0.035,0.0746 -0.041,0.1114 -0.007,0.0586 0.003,0.1153 0.027,0.166 0.023,0.0497 0.061,0.0915 0.109,0.1203 0.028,0.0179 0.062,0.0308 0.097,0.0338 h 0.001 c 0.344,0.0517 0.675,0.1442 0.993,0.2615 h 0.001 c 0.316,0.1163 0.624,0.2605 0.927,0.4156 0.436,0.2248 0.916,0.2904 1.398,0.354 l 0.265,0.0368 c 0.236,0.0338 0.477,0.0626 0.718,0.0895 l 0.206,0.0239 c 0.085,0.01 0.161,0.0328 0.22,0.0805 0.066,0.0537 0.104,0.1302 0.101,0.2426 v 0.006 l -0.003,0.0218 v 0.006 c -0.01,0.0795 -0.05,0.1432 -0.114,0.1869 -0.058,0.0388 -0.132,0.0577 -0.221,0.0537 -0.019,0 -0.039,-0.003 -0.06,-0.004 v -0.002 c -0.47,-0.0596 -0.916,-0.1203 -1.363,-0.1799 l -0.356,-0.0497 c -0.218,-0.0289 -0.429,-0.0796 -0.632,-0.1492 -0.204,-0.0696 -0.402,-0.1551 -0.592,-0.2545 -0.253,-0.1303 -0.51,-0.2436 -0.772,-0.3341 -0.263,-0.0915 -0.535,-0.1631 -0.814,-0.2138 h -10e-4 c -0.29,-0.0527 -0.54,-0.2297 -0.663,-0.5011 -0.125,-0.2724 -0.094,-0.5767 0.054,-0.8322 0.338,-0.5727 0.816,-0.4097 1.347,-0.3152 l -0.473,-0.4255 c -0.666,-0.5996 -1.333,-1.2001 -2.024,-1.7838 -0.12,-0.1004 -0.213,-0.2237 -0.276,-0.356 -0.072,-0.155 -0.105,-0.3231 -0.089,-0.4892 0.017,-0.167 0.082,-0.33 0.204,-0.4722 0.064,-0.0756 0.146,-0.1452 0.245,-0.2048 -0.151,-0.186 -0.237,-0.3749 -0.257,-0.5598"
           style="fill:#ffffff;fill-opacity:1;fill-rule:nonzero;stroke:none"
           id="path6152" />
      </g>
    </g>
  </g>
</svg>
